<?xml version="1.0" encoding="UTF-8" standalone="no"?>
<svg width="1024px" height="755px" viewBox="0 0 1024 755" version="1.1" xmlns="http://www.w3.org/2000/svg" xmlns:xlink="http://www.w3.org/1999/xlink">
    <!-- Generator: Sketch 42 (36781) - http://www.bohemiancoding.com/sketch -->
    <title>background-img</title>
    <desc>Created with Sketch.</desc>
    <defs></defs>
    <g id="Symbols" stroke="none" stroke-width="1" fill="none" fill-rule="evenodd">
        <g id="background-img" fill="#157EDE">
            <g>
                <g transform="translate(177.000000, -693.000000)">
                    <g id="Rectangle-3-Copy-+-Rectangle-3-Mask" transform="translate(674.000000, 695.000000) scale(-1, 1) translate(-674.000000, -695.000000) translate(404.000000, 0.000000)">
                        <path d="M229.486564,438.089025 C268.419205,407.18976 331.197263,407.621622 369.709448,439.057017 L954.626747,916.493091 L-389.869487,929.646893 L229.486564,438.089025 Z" id="Rectangle-3-Copy" opacity="0.191697761" transform="translate(282.378630, 672.420735) rotate(-270.000000) translate(-282.378630, -672.420735) "></path>
                        <path d="M87.0355642,848.63636 C125.81661,817.542005 188.359403,817.954707 226.717683,849.548997 L564.271122,1127.57923 L-260.863474,1127.57923 L87.0355642,848.63636 Z" id="Rectangle-3" opacity="0.433185634" transform="translate(151.703824, 976.580520) rotate(-270.000000) translate(-151.703824, -976.580520) "></path>
                    </g>
                    <g id="Rectangle-3-Copy-+-Rectangle-3-Mask-Copy" transform="translate(424.000000, 1136.000000) scale(-1, 1) translate(-424.000000, -1136.000000) translate(0.000000, 686.000000)" opacity="0.191697761">
                        <path d="M110.93195,41.2879648 C154.456327,17.29171 220.962726,23.3195587 259.474081,54.748222 L804.981366,499.930295 C804.981366,499.930295 998.203927,870.36535 735.981366,872.930295 C638.409818,873.884697 -19.018634,872.930295 -19.018634,872.930295 L-25.6483606,116.588661 L110.93195,41.2879648 Z" id="Rectangle-3-Copy" transform="translate(423.955831, 449.974465) rotate(-270.000000) translate(-423.955831, -449.974465) "></path>
                    </g>
                </g>
            </g>
        </g>
    </g>
</svg>