<?xml version="1.0" encoding="UTF-8" standalone="no"?>
<svg width="98px" height="46px" viewBox="0 0 98 46" version="1.1" xmlns="http://www.w3.org/2000/svg" xmlns:xlink="http://www.w3.org/1999/xlink">
    <!-- Generator: Sketch 43.2 (39069) - http://www.bohemiancoding.com/sketch -->
    <title>img_group_kids_2</title>
    <desc>Created with Sketch.</desc>
    <defs></defs>
    <g id="00-landingpage" stroke="none" stroke-width="1" fill="none" fill-rule="evenodd">
        <g id="landing-desktop" transform="translate(-528.000000, -730.000000)">
            <g id="Group-9" transform="translate(203.000000, 714.000000)">
                <g id="Group-3" transform="translate(325.811773, 14.876607)">
                    <g id="img_group_kids_2" transform="translate(0.000000, 1.000000)">
                        <path d="M43.391115,0.746278912 C44.474922,0.746278912 45.4665906,0.906138049 46.3661504,1.22586112 C47.2657102,1.54558419 48.0352017,1.99806683 48.6746478,2.58332262 C49.314094,3.16857841 49.8126377,3.87304241 50.170294,4.69673574 C50.5279503,5.52042908 50.7067758,6.43623227 50.7067758,7.4441728 C50.7067758,8.31121842 50.5794304,9.11322358 50.3247358,9.85021235 C50.0700411,10.5872011 49.728647,11.2916651 49.3005432,11.9636255 C48.8724395,12.6355858 48.3711862,13.2858603 47.7967685,13.9144684 C47.2223508,14.5430764 46.6208469,15.182513 45.9922389,15.8327972 L40.692449,21.2463862 C41.2126764,21.0946532 41.7220581,20.9781457 42.2206093,20.8968602 C42.7191605,20.8155746 43.1960285,20.7749325 43.6512274,20.7749325 L49.6825833,20.7749325 C50.1161061,20.7749325 50.4602097,20.8968589 50.7149043,21.1407155 C50.969599,21.3845721 51.0969444,21.7069999 51.0969444,22.1080084 L51.0969444,24.514048 L34.9699766,24.514048 L34.9699766,23.180972 C34.9699766,22.9100203 35.0268756,22.6282347 35.1406753,22.3356068 C35.2544751,22.0429789 35.43601,21.7720312 35.6852856,21.5227556 L42.8221192,14.369665 C43.418213,13.7627331 43.95198,13.182905 44.423436,12.6301635 C44.8948921,12.0774219 45.2904757,11.5301075 45.6101988,10.988204 C45.9299219,10.4463005 46.1737748,9.89627671 46.3417649,9.3381161 C46.509755,8.77995548 46.5937487,8.19199899 46.5937487,7.57422899 C46.5937487,7.01064934 46.5124644,6.51481507 46.3498934,6.0867113 C46.1873223,5.65860752 45.9543073,5.2982471 45.6508414,5.0056192 C45.3473754,4.7129913 44.987015,4.49352368 44.5697493,4.34720973 C44.1524836,4.20089578 43.6837441,4.1277399 43.1635167,4.1277399 C42.1989284,4.1277399 41.4050517,4.37159283 40.7818627,4.85930598 C40.1586736,5.34701914 39.7224479,6.00271255 39.4731722,6.82640589 C39.3539535,7.23825256 39.175128,7.53358554 38.9366904,7.7124137 C38.6982529,7.89124185 38.3947915,7.98065459 38.0262971,7.98065459 C37.863726,7.98065459 37.6849006,7.96439773 37.4898153,7.93188352 L35.3764022,7.55797197 C35.5389732,6.43081267 35.8532726,5.4418536 36.3193096,4.59106509 C36.7853466,3.74027658 37.3678841,3.03039363 38.0669397,2.46139494 C38.7659952,1.89239626 39.5680004,1.46429891 40.4729792,1.17709005 C41.3779581,0.889881188 42.3506603,0.746278912 43.391115,0.746278912 Z M68.5407311,2.71337882 C68.5407311,3.28779654 68.3591962,3.75382656 67.9961208,4.11148288 C67.6330455,4.4691392 67.0288321,4.64796467 66.1834627,4.64796467 L59.7131671,4.64796467 L58.8678019,9.55758592 C59.9299327,9.34082452 60.8999255,9.23244544 61.7778092,9.23244544 C63.0133492,9.23244544 64.0998494,9.41668987 65.0373425,9.78518426 C65.9748355,10.1536786 66.7632933,10.6630603 67.4027395,11.3133445 C68.0421856,11.9636287 68.5244725,12.7249917 68.8496146,13.5974564 C69.1747567,14.469921 69.3373253,15.4101095 69.3373253,16.41805 C69.3373253,17.6644281 69.1178577,18.8024084 68.6789159,19.8320251 C68.239974,20.8616418 67.6303417,21.7422218 66.8500007,22.4737915 C66.0696596,23.2053612 65.145728,23.7716419 64.0781781,24.1726505 C63.0106281,24.5736591 61.8482626,24.7741604 60.5910464,24.7741604 C59.8540576,24.7741604 59.1550126,24.698295 58.4938903,24.546562 C57.832768,24.3948291 57.2122978,24.1916183 56.6324611,23.9369236 C56.0526243,23.682229 55.5161479,23.3896055 55.0230157,23.0590444 C54.5298835,22.7284832 54.0882388,22.3789607 53.6980682,22.0104663 L54.9336021,20.3034788 C55.1937157,19.9349844 55.5405288,19.75074 55.9740516,19.75074 C56.2450034,19.75074 56.5186605,19.8374432 56.7950313,20.0108524 C57.0714021,20.1842615 57.3938298,20.3739249 57.7623242,20.5798482 C58.1308186,20.7857715 58.558916,20.9754349 59.0466291,21.148844 C59.5343423,21.3222532 60.1250083,21.4089564 60.8186447,21.4089564 C61.5556335,21.4089564 62.205908,21.2897394 62.7694876,21.0513019 C63.3330673,20.8128643 63.8018068,20.4795987 64.1757202,20.0514949 C64.5496336,19.6233911 64.8314192,19.1140095 65.0210855,18.5233347 C65.2107517,17.9326598 65.3055834,17.2905138 65.3055834,16.5968773 C65.3055834,15.317985 64.934385,14.3181881 64.1919772,13.5974564 C63.4495694,12.8767247 62.3576502,12.5163643 60.9161869,12.5163643 C59.7781895,12.5163643 58.6347903,12.7222845 57.4859548,13.1341312 L54.9823731,12.4188221 L56.933216,1.0063913 L68.5407311,1.0063913 L68.5407311,2.71337882 Z M83.1720527,6.6963497 C83.1720527,7.58507145 83.0230315,8.38707662 82.7249846,9.10238925 C82.4269377,9.81770188 82.0286446,10.4273342 81.5300933,10.9313044 C81.0315421,11.4352747 80.451714,11.8227299 79.7905918,12.0936817 C79.1294695,12.3646334 78.4412623,12.5001073 77.7259497,12.5001073 C76.9456087,12.5001073 76.2248878,12.3646334 75.5637655,12.0936817 C74.9026432,11.8227299 74.3309436,11.4352747 73.8486495,10.9313044 C73.3663554,10.4273342 72.9897381,9.81770188 72.7187863,9.10238925 C72.4478346,8.38707662 72.3123607,7.58507145 72.3123607,6.6963497 C72.3123607,5.7859518 72.4478346,4.96227082 72.7187863,4.22528205 C72.9897381,3.48829328 73.3663554,2.86511359 73.8486495,2.35572429 C74.3309436,1.84633499 74.9026432,1.45346084 75.5637655,1.17709005 C76.2248878,0.900719258 76.9456087,0.762535936 77.7259497,0.762535936 C78.5062908,0.762535936 79.2297211,0.900719258 79.8962624,1.17709005 C80.5628037,1.45346084 81.1399223,1.84633499 81.6276355,2.35572429 C82.1153486,2.86511359 82.4946754,3.48829328 82.7656271,4.22528205 C83.0365789,4.96227082 83.1720527,5.7859518 83.1720527,6.6963497 Z M80.0669612,6.6963497 C80.0669612,6.06774162 80.0073527,5.54210311 79.8881339,5.11941837 C79.7689151,4.69673363 79.603637,4.35533954 79.3922947,4.09522586 C79.1809523,3.83511217 78.9316804,3.64815826 78.6444716,3.53435853 C78.3572627,3.42055879 78.0510918,3.36365978 77.7259497,3.36365978 C77.4008076,3.36365978 77.0973462,3.42055879 76.8155564,3.53435853 C76.5337665,3.64815826 76.2899136,3.83511217 76.0839903,4.09522586 C75.878067,4.35533954 75.7182078,4.69673363 75.6044081,5.11941837 C75.4906083,5.54210311 75.4337093,6.06774162 75.4337093,6.6963497 C75.4337093,7.30328163 75.4906083,7.80995381 75.6044081,8.21638144 C75.7182078,8.62280907 75.878067,8.95065578 76.0839903,9.19993139 C76.2899136,9.44920701 76.5337665,9.62803248 76.8155564,9.73641318 C77.0973462,9.84479389 77.4008076,9.89898342 77.7259497,9.89898342 C78.0510918,9.89898342 78.3572627,9.84479389 78.6444716,9.73641318 C78.9316804,9.62803248 79.1809523,9.44920701 79.3922947,9.19993139 C79.603637,8.95065578 79.7689151,8.62280907 79.8881339,8.21638144 C80.0073527,7.80995381 80.0669612,7.30328163 80.0669612,6.6963497 Z M90.9916813,1.64041523 C91.1217381,1.47784418 91.2843067,1.33153243 91.479392,1.20147558 C91.6744773,1.07141874 91.945425,1.0063913 92.2922432,1.0063913 L95.2022505,1.0063913 L77.7422067,23.9125381 C77.6121499,24.0859472 77.4468718,24.2295495 77.2463675,24.3433492 C77.0458632,24.457149 76.8047198,24.514048 76.5229299,24.514048 L73.5316375,24.514048 L90.9916813,1.64041523 Z M96.4377843,18.9866598 C96.4377843,19.8753816 96.2887631,20.6773868 95.9907162,21.3926994 C95.6926692,22.108012 95.2943761,22.7176443 94.7958249,23.2216146 C94.2972737,23.7255849 93.7174456,24.1157495 93.0563233,24.3921203 C92.3952011,24.6684911 91.7069939,24.8066744 90.9916813,24.8066744 C90.2113402,24.8066744 89.4906194,24.6684911 88.8294971,24.3921203 C88.1683748,24.1157495 87.5966752,23.7255849 87.1143811,23.2216146 C86.6320869,22.7176443 86.2554697,22.108012 85.9845179,21.3926994 C85.7135661,20.6773868 85.5780923,19.8753816 85.5780923,18.9866598 C85.5780923,18.0762619 85.7135661,17.252581 85.9845179,16.5155922 C86.2554697,15.7786034 86.6320869,15.1554237 87.1143811,14.6460344 C87.5966752,14.1366451 88.1683748,13.743771 88.8294971,13.4674002 C89.4906194,13.1910294 90.2113402,13.0528461 90.9916813,13.0528461 C91.7720223,13.0528461 92.4954527,13.1910294 93.161994,13.4674002 C93.8285353,13.743771 94.4056539,14.1366451 94.8933671,14.6460344 C95.3810802,15.1554237 95.760407,15.7786034 96.0313587,16.5155922 C96.3023105,17.252581 96.4377843,18.0762619 96.4377843,18.9866598 Z M93.3489498,18.9866598 C93.3489498,18.3580518 93.2866318,17.8324132 93.161994,17.4097285 C93.0373562,16.9870438 92.8693686,16.6456497 92.6580263,16.385536 C92.4466839,16.1254223 92.197412,15.9384684 91.9102031,15.8246687 C91.6229943,15.7108689 91.3168234,15.6539699 90.9916813,15.6539699 C90.6665392,15.6539699 90.3630778,15.7108689 90.0812879,15.8246687 C89.7994981,15.9384684 89.5583547,16.1254223 89.3578504,16.385536 C89.1573461,16.6456497 88.9974869,16.9870438 88.8782682,17.4097285 C88.7590494,17.8324132 88.6994409,18.3580518 88.6994409,18.9866598 C88.6994409,19.5935918 88.7590494,20.1029734 88.8782682,20.5148201 C88.9974869,20.9266668 89.1573461,21.2572229 89.3578504,21.5064986 C89.5583547,21.7557742 89.7994981,21.9345997 90.0812879,22.0429804 C90.3630778,22.1513611 90.6665392,22.2055506 90.9916813,22.2055506 C91.3168234,22.2055506 91.6229943,22.1513611 91.9102031,22.0429804 C92.197412,21.9345997 92.4466839,21.7557742 92.6580263,21.5064986 C92.8693686,21.2572229 93.0373562,20.9266668 93.161994,20.5148201 C93.2866318,20.1029734 93.3489498,19.5935918 93.3489498,18.9866598 Z" id="25%" fill="#157EDE"></path>
                        <g id="kid/normal" transform="translate(0.000000, 0.869867)" fill="#DCDEE3">
                            <g id="normal-kid">
                                <ellipse id="Oval" cx="14.2948113" cy="5.78173375" rx="5.67688679" ry="5.78173375"></ellipse>
                                <path d="M22.6772674,24.6486341 L22.9724891,32.46194 L23.7502539,42.8767698 L23.70851,43.1471426 C23.7439695,43.4575709 23.6844128,43.7800533 23.5173103,44.0694835 C23.0968544,44.7977344 22.15474,45.0409565 21.4130389,44.6127352 C20.9664977,44.3549245 20.6944035,43.9125163 20.6403124,43.4423115 C19.7416184,41.7942248 16.6536409,36.1587843 15.9372636,35.2165733 C15.4535078,34.5803165 14.9263852,34.2620805 14.5659024,34.1065326 C14.2063027,34.2658088 13.6919766,34.5838794 13.2190903,35.2058401 C12.4934731,36.1602038 9.33468309,41.929645 8.48236965,43.493341 C8.42668342,43.9549239 8.15836664,44.3884511 7.71969943,44.6417158 C6.98671228,45.0649061 6.05566643,44.8245415 5.64015031,44.1048465 C5.47146414,43.8126735 5.41367477,43.4864184 5.45358463,43.173592 L5.40609998,42.8660366 L6.23366385,31.7843614 L6.51290722,24.3939372 L2.8762975,29.0715768 L2.85832029,29.0820495 C2.63976483,29.4659017 2.25902432,29.7492596 1.79391936,29.822925 C0.973118501,29.952927 0.200394015,29.3806348 0.0679909101,28.5446745 C0.00602299253,28.1534245 0.0952982647,27.7737605 0.291967573,27.4672119 L5.89751396,15.2721331 C6.02174696,14.2256741 6.88088223,13.4098135 7.93374387,13.3757223 L7.93396226,13.374613 C7.93396226,13.374613 7.93567676,13.3749318 7.93905489,13.375557 C7.96008072,13.3749291 7.98118336,13.374613 8.00235849,13.374613 C8.27622119,13.374613 8.53795696,13.4274935 8.778259,13.5237758 C10.1853308,13.7641472 13.0109334,14.2105263 14.5902755,14.2105263 C16.1454559,14.2105263 18.8155694,13.7777007 20.1908076,13.5349502 C20.4385432,13.4315927 20.7097554,13.374613 20.9940347,13.374613 C21.0163138,13.374613 21.0385127,13.374963 21.0606263,13.3756578 C21.0642152,13.3749661 21.0660377,13.374613 21.0660377,13.374613 L21.0662128,13.3758407 C22.1155628,13.4115908 22.9717092,14.2239321 23.0982042,15.2665089 L28.6534166,27.4072176 C28.8498401,27.7136703 28.9389718,28.0931144 28.8770409,28.4841307 C28.7446378,29.320091 27.9719133,29.8923832 27.1511124,29.7623811 C26.6859862,29.6887123 26.3052322,29.405332 26.0866816,29.0214531 L26.0687946,29.0110329 L22.6772674,24.6486341 Z" id="Combined-Shape"></path>
                            </g>
                        </g>
                        <g id="kid/tdah" transform="translate(35.502354, 30.089071)" fill="#157EDE">
                            <g>
                                <ellipse id="Oval" cx="4.93589744" cy="1.79876161" rx="1.77350427" ry="1.79876161"></ellipse>
                                <path d="M7.5808808,5.71714454 L7.73420904,9.55310368 L7.99119764,13.3977944 C8.0150035,13.5185516 7.999698,13.6412098 7.93782439,13.7495688 C7.80647065,13.979608 7.514982,14.058092 7.28676628,13.9248675 C7.25512404,13.9063959 7.2263595,13.8848242 7.20063308,13.8607541 C7.14064533,13.8028864 7.10033445,13.7388942 7.07576925,13.669525 C6.88698295,13.3129702 5.82791706,11.318479 5.59363133,11.0033601 C5.36136542,10.6909578 5.09456571,10.6248599 5.04456701,10.6149142 L4.94418146,10.6149142 C4.86880176,10.6330339 4.62478014,10.7114415 4.41022621,11.0000208 C4.16931707,11.3240484 3.05633447,13.4237443 2.91420192,13.6924236 C2.87673757,13.7905998 2.80698433,13.8770266 2.70971357,13.9338099 C2.48417907,14.0654691 2.19611501,13.9879072 2.06630449,13.7605706 C2.00420047,13.6518081 1.98956977,13.5284685 2.01589964,13.4149768 L2.25477895,9.77222111 L2.41632966,5.73055254 L0.112216062,2.18486929 C0.0414088605,2.09751734 0,1.99052779 0,1.87372895 C0,1.61041053 0.210464434,1.39694877 0.47008547,1.39694877 C0.616375453,1.39694877 0.747058011,1.46472376 0.833274255,1.57100388 L3.65179033,4.20005351 C3.65179033,4.20005351 4.12660256,4.49382716 4.94418146,4.49382716 C5.76176035,4.49382716 6.33070295,4.20005351 6.33070295,4.20005351 L9.16279961,1.55741797 C9.25068838,1.45049105 9.38137094,1.38271605 9.52766092,1.38271605 C9.78728196,1.38271605 9.99774639,1.59617781 9.99774639,1.85949624 C9.99774639,1.97629508 9.95633753,2.08328462 9.88759737,2.16618683 L7.5808808,5.71714454 Z" id="Combined-Shape"></path>
                            </g>
                        </g>
                        <g id="kid/tdah" transform="translate(49.601537, 30.089071)" fill="#157EDE">
                            <g>
                                <ellipse id="Oval" cx="4.93589744" cy="1.79876161" rx="1.77350427" ry="1.79876161"></ellipse>
                                <path d="M7.5808808,5.71714454 L7.73420904,9.55310368 L7.99119764,13.3977944 C8.0150035,13.5185516 7.999698,13.6412098 7.93782439,13.7495688 C7.80647065,13.979608 7.514982,14.058092 7.28676628,13.9248675 C7.25512404,13.9063959 7.2263595,13.8848242 7.20063308,13.8607541 C7.14064533,13.8028864 7.10033445,13.7388942 7.07576925,13.669525 C6.88698295,13.3129702 5.82791706,11.318479 5.59363133,11.0033601 C5.36136542,10.6909578 5.09456571,10.6248599 5.04456701,10.6149142 L4.94418146,10.6149142 C4.86880176,10.6330339 4.62478014,10.7114415 4.41022621,11.0000208 C4.16931707,11.3240484 3.05633447,13.4237443 2.91420192,13.6924236 C2.87673757,13.7905998 2.80698433,13.8770266 2.70971357,13.9338099 C2.48417907,14.0654691 2.19611501,13.9879072 2.06630449,13.7605706 C2.00420047,13.6518081 1.98956977,13.5284685 2.01589964,13.4149768 L2.25477895,9.77222111 L2.41632966,5.73055254 L0.112216062,2.18486929 C0.0414088605,2.09751734 0,1.99052779 0,1.87372895 C0,1.61041053 0.210464434,1.39694877 0.47008547,1.39694877 C0.616375453,1.39694877 0.747058011,1.46472376 0.833274255,1.57100388 L3.65179033,4.20005351 C3.65179033,4.20005351 4.12660256,4.49382716 4.94418146,4.49382716 C5.76176035,4.49382716 6.33070295,4.20005351 6.33070295,4.20005351 L9.16279961,1.55741797 C9.25068838,1.45049105 9.38137094,1.38271605 9.52766092,1.38271605 C9.78728196,1.38271605 9.99774639,1.59617781 9.99774639,1.85949624 C9.99774639,1.97629508 9.95633753,2.08328462 9.88759737,2.16618683 L7.5808808,5.71714454 Z" id="Combined-Shape"></path>
                            </g>
                        </g>
                        <g id="kid/tdah" transform="translate(63.700720, 30.089071)" fill="#157EDE">
                            <g>
                                <ellipse id="Oval" cx="4.93589744" cy="1.79876161" rx="1.77350427" ry="1.79876161"></ellipse>
                                <path d="M7.5808808,5.71714454 L7.73420904,9.55310368 L7.99119764,13.3977944 C8.0150035,13.5185516 7.999698,13.6412098 7.93782439,13.7495688 C7.80647065,13.979608 7.514982,14.058092 7.28676628,13.9248675 C7.25512404,13.9063959 7.2263595,13.8848242 7.20063308,13.8607541 C7.14064533,13.8028864 7.10033445,13.7388942 7.07576925,13.669525 C6.88698295,13.3129702 5.82791706,11.318479 5.59363133,11.0033601 C5.36136542,10.6909578 5.09456571,10.6248599 5.04456701,10.6149142 L4.94418146,10.6149142 C4.86880176,10.6330339 4.62478014,10.7114415 4.41022621,11.0000208 C4.16931707,11.3240484 3.05633447,13.4237443 2.91420192,13.6924236 C2.87673757,13.7905998 2.80698433,13.8770266 2.70971357,13.9338099 C2.48417907,14.0654691 2.19611501,13.9879072 2.06630449,13.7605706 C2.00420047,13.6518081 1.98956977,13.5284685 2.01589964,13.4149768 L2.25477895,9.77222111 L2.41632966,5.73055254 L0.112216062,2.18486929 C0.0414088605,2.09751734 0,1.99052779 0,1.87372895 C0,1.61041053 0.210464434,1.39694877 0.47008547,1.39694877 C0.616375453,1.39694877 0.747058011,1.46472376 0.833274255,1.57100388 L3.65179033,4.20005351 C3.65179033,4.20005351 4.12660256,4.49382716 4.94418146,4.49382716 C5.76176035,4.49382716 6.33070295,4.20005351 6.33070295,4.20005351 L9.16279961,1.55741797 C9.25068838,1.45049105 9.38137094,1.38271605 9.52766092,1.38271605 C9.78728196,1.38271605 9.99774639,1.59617781 9.99774639,1.85949624 C9.99774639,1.97629508 9.95633753,2.08328462 9.88759737,2.16618683 L7.5808808,5.71714454 Z" id="Combined-Shape"></path>
                            </g>
                        </g>
                    </g>
                </g>
            </g>
        </g>
    </g>
</svg>