<?xml version="1.0" encoding="UTF-8" standalone="no"?>
<svg width="287px" height="853px" viewBox="0 0 287 853" version="1.1" xmlns="http://www.w3.org/2000/svg" xmlns:xlink="http://www.w3.org/1999/xlink">
    <!-- Generator: Sketch 43.2 (39069) - http://www.bohemiancoding.com/sketch -->
    <title>img_triangle_right</title>
    <desc>Created with Sketch.</desc>
    <defs></defs>
    <g id="00-landingpage" stroke="none" stroke-width="1" fill="none" fill-rule="evenodd">
        <g id="landing-desktop" transform="translate(-737.000000, -898.000000)" fill="#96F3F7">
            <g id="img_triangle_right" transform="translate(882.000000, 1323.500000) scale(-1, -1) translate(-882.000000, -1323.500000) translate(737.000000, 894.000000)">
                <path d="M213.945536,256.736477 C338.995195,416.337879 286.167115,500.055953 212.514409,592.394742 L8.54165584,847.968764 C5.80886647,851.392898 0.343287716,858.241165 0.343287716,858.241165 L1.3254899,0.120496038 C1.3254899,0.120496038 10.0076503,10.5991934 14.680122,16.238506 L213.945536,256.736477 Z" id="Rectangle-3-Copy" opacity="0.191697761"></path>
                <path d="M31.8499103,588.687755 C102,681 84.9380067,751.956263 35,814 C35,814 12.8684004,841.888374 1.80260055,855.832561 C0.994627521,856.850701 2.07723654,550.688767 2.07723654,550.688767 L31.8499103,588.687755 Z" id="Rectangle-3" opacity="0.433185634"></path>
            </g>
        </g>
    </g>
</svg>