<?xml version="1.0" encoding="UTF-8" standalone="no"?>
<svg width="138px" height="44px" viewBox="0 0 138 44" version="1.1" xmlns="http://www.w3.org/2000/svg" xmlns:xlink="http://www.w3.org/1999/xlink">
    <!-- Generator: Sketch 43.2 (39069) - http://www.bohemiancoding.com/sketch -->
    <title>img_group_kids_3</title>
    <desc>Created with Sketch.</desc>
    <defs></defs>
    <g id="00-landingpage" stroke="none" stroke-width="1" fill="none" fill-rule="evenodd">
        <g id="landing-desktop" transform="translate(-528.000000, -835.000000)" fill="#157EDE">
            <g id="Group-9" transform="translate(203.000000, 714.000000)">
                <g id="Group" transform="translate(325.811773, 118.645244)">
                    <g id="img_group_kids_3" transform="translate(0.000000, 2.000000)">
                        <path d="M89.2559075,15.6539699 L92.2146859,15.6539699 L92.2146859,17.9787244 C92.2146859,18.1954858 92.1442395,18.3824397 92.0033446,18.5395917 C91.8624497,18.6967437 91.6565294,18.7753185 91.3855777,18.7753185 L89.2559075,18.7753185 L89.2559075,24.514048 L85.7443903,24.514048 L85.7443903,18.7753185 L75.8276057,18.7753185 C75.5566539,18.7753185 75.31822,18.6913247 75.1122966,18.5233347 C74.9063733,18.3553446 74.7763184,18.1467148 74.7221281,17.8974392 L74.3157025,15.8653112 L85.4517639,0.990134272 L89.2559075,0.990134272 L89.2559075,15.6539699 Z M85.7443903,7.96439757 C85.7443903,7.61757932 85.7552282,7.24367151 85.7769044,6.84266291 C85.7985805,6.44165431 85.8365132,6.02439487 85.8907036,5.59087206 L78.5912998,15.6539699 L85.7443903,15.6539699 L85.7443903,7.96439757 Z M110.845235,12.7602196 C110.845235,14.8086149 110.625768,16.5887412 110.186826,18.100652 C109.747884,19.6125628 109.140961,20.8616317 108.366039,21.8478961 C107.591117,22.8341605 106.675314,23.5684287 105.618602,24.0507228 C104.56189,24.5330169 103.421201,24.7741604 102.196499,24.7741604 C100.971797,24.7741604 99.8365259,24.5330169 98.7906521,24.0507228 C97.7447783,23.5684287 96.8371036,22.8341605 96.0676006,21.8478961 C95.2980976,20.8616317 94.6965937,19.6125628 94.2630709,18.100652 C93.8295481,16.5887412 93.61279,14.8086149 93.61279,12.7602196 C93.61279,10.7009863 93.8295481,8.91815051 94.2630709,7.41165875 C94.6965937,5.905167 95.2980976,4.65880762 96.0676006,3.67254323 C96.8371036,2.68627884 97.7447783,1.9520106 98.7906521,1.46971648 C99.8365259,0.987422357 100.971797,0.746278912 102.196499,0.746278912 C103.421201,0.746278912 104.56189,0.987422357 105.618602,1.46971648 C106.675314,1.9520106 107.591117,2.68627884 108.366039,3.67254323 C109.140961,4.65880762 109.747884,5.905167 110.186826,7.41165875 C110.625768,8.91815051 110.845235,10.7009863 110.845235,12.7602196 Z M106.699694,12.7602196 C106.699694,11.0586426 106.575058,9.64971464 106.325783,8.53339341 C106.076507,7.41707218 105.743241,6.52836375 105.325976,5.86724147 C104.90871,5.20611919 104.429133,4.74279864 103.887229,4.47726592 C103.345326,4.2117332 102.781754,4.07896883 102.196499,4.07896883 C101.622081,4.07896883 101.066638,4.2117332 100.530154,4.47726592 C99.9936692,4.74279864 99.5195107,5.20611919 99.1076641,5.86724147 C98.6958174,6.52836375 98.3679707,7.41707218 98.1241141,8.53339341 C97.8802575,9.64971464 97.7583311,11.0586426 97.7583311,12.7602196 C97.7583311,14.4617967 97.8802575,15.8707247 98.1241141,16.9870459 C98.3679707,18.1033671 98.6958174,18.9920755 99.1076641,19.6531978 C99.5195107,20.3143201 99.9936692,20.7776407 100.530154,21.0431734 C101.066638,21.3087061 101.622081,21.4414705 102.196499,21.4414705 C102.781754,21.4414705 103.345326,21.3087061 103.887229,21.0431734 C104.429133,20.7776407 104.90871,20.3143201 105.325976,19.6531978 C105.743241,18.9920755 106.076507,18.1033671 106.325783,16.9870459 C106.575058,15.8707247 106.699694,14.4617967 106.699694,12.7602196 Z M123.509457,6.6963497 C123.509457,7.58507145 123.360436,8.38707662 123.062389,9.10238925 C122.764342,9.81770188 122.366049,10.4273342 121.867498,10.9313044 C121.368946,11.4352747 120.789118,11.8227299 120.127996,12.0936817 C119.466874,12.3646334 118.778667,12.5001073 118.063354,12.5001073 C117.283013,12.5001073 116.562292,12.3646334 115.90117,12.0936817 C115.240048,11.8227299 114.668348,11.4352747 114.186054,10.9313044 C113.70376,10.4273342 113.327142,9.81770188 113.056191,9.10238925 C112.785239,8.38707662 112.649765,7.58507145 112.649765,6.6963497 C112.649765,5.7859518 112.785239,4.96227082 113.056191,4.22528205 C113.327142,3.48829328 113.70376,2.86511359 114.186054,2.35572429 C114.668348,1.84633499 115.240048,1.45346084 115.90117,1.17709005 C116.562292,0.900719258 117.283013,0.762535936 118.063354,0.762535936 C118.843695,0.762535936 119.567125,0.900719258 120.233667,1.17709005 C120.900208,1.45346084 121.477327,1.84633499 121.96504,2.35572429 C122.452753,2.86511359 122.83208,3.48829328 123.103031,4.22528205 C123.373983,4.96227082 123.509457,5.7859518 123.509457,6.6963497 Z M120.404366,6.6963497 C120.404366,6.06774162 120.344757,5.54210311 120.225538,5.11941837 C120.106319,4.69673363 119.941041,4.35533954 119.729699,4.09522586 C119.518357,3.83511217 119.269085,3.64815826 118.981876,3.53435853 C118.694667,3.42055879 118.388496,3.36365978 118.063354,3.36365978 C117.738212,3.36365978 117.434751,3.42055879 117.152961,3.53435853 C116.871171,3.64815826 116.627318,3.83511217 116.421395,4.09522586 C116.215471,4.35533954 116.055612,4.69673363 115.941812,5.11941837 C115.828013,5.54210311 115.771114,6.06774162 115.771114,6.6963497 C115.771114,7.30328163 115.828013,7.80995381 115.941812,8.21638144 C116.055612,8.62280907 116.215471,8.95065578 116.421395,9.19993139 C116.627318,9.44920701 116.871171,9.62803248 117.152961,9.73641318 C117.434751,9.84479389 117.738212,9.89898342 118.063354,9.89898342 C118.388496,9.89898342 118.694667,9.84479389 118.981876,9.73641318 C119.269085,9.62803248 119.518357,9.44920701 119.729699,9.19993139 C119.941041,8.95065578 120.106319,8.62280907 120.225538,8.21638144 C120.344757,7.80995381 120.404366,7.30328163 120.404366,6.6963497 Z M131.329086,1.64041523 C131.459142,1.47784418 131.621711,1.33153243 131.816796,1.20147558 C132.011882,1.07141874 132.282829,1.0063913 132.629648,1.0063913 L135.539655,1.0063913 L118.079611,23.9125381 C117.949554,24.0859472 117.784276,24.2295495 117.583772,24.3433492 C117.383268,24.457149 117.142124,24.514048 116.860334,24.514048 L113.869042,24.514048 L131.329086,1.64041523 Z M136.775189,18.9866598 C136.775189,19.8753816 136.626167,20.6773868 136.328121,21.3926994 C136.030074,22.108012 135.63178,22.7176443 135.133229,23.2216146 C134.634678,23.7255849 134.05485,24.1157495 133.393728,24.3921203 C132.732605,24.6684911 132.044398,24.8066744 131.329086,24.8066744 C130.548745,24.8066744 129.828024,24.6684911 129.166901,24.3921203 C128.505779,24.1157495 127.93408,23.7255849 127.451785,23.2216146 C126.969491,22.7176443 126.592874,22.108012 126.321922,21.3926994 C126.05097,20.6773868 125.915497,19.8753816 125.915497,18.9866598 C125.915497,18.0762619 126.05097,17.252581 126.321922,16.5155922 C126.592874,15.7786034 126.969491,15.1554237 127.451785,14.6460344 C127.93408,14.1366451 128.505779,13.743771 129.166901,13.4674002 C129.828024,13.1910294 130.548745,13.0528461 131.329086,13.0528461 C132.109427,13.0528461 132.832857,13.1910294 133.499398,13.4674002 C134.16594,13.743771 134.743058,14.1366451 135.230771,14.6460344 C135.718485,15.1554237 136.097811,15.7786034 136.368763,16.5155922 C136.639715,17.252581 136.775189,18.0762619 136.775189,18.9866598 Z M133.686354,18.9866598 C133.686354,18.3580518 133.624036,17.8324132 133.499398,17.4097285 C133.374761,16.9870438 133.206773,16.6456497 132.995431,16.385536 C132.784088,16.1254223 132.534816,15.9384684 132.247607,15.8246687 C131.960399,15.7108689 131.654228,15.6539699 131.329086,15.6539699 C131.003944,15.6539699 130.700482,15.7108689 130.418692,15.8246687 C130.136902,15.9384684 129.895759,16.1254223 129.695255,16.385536 C129.49475,16.6456497 129.334891,16.9870438 129.215673,17.4097285 C129.096454,17.8324132 129.036845,18.3580518 129.036845,18.9866598 C129.036845,19.5935918 129.096454,20.1029734 129.215673,20.5148201 C129.334891,20.9266668 129.49475,21.2572229 129.695255,21.5064986 C129.895759,21.7557742 130.136902,21.9345997 130.418692,22.0429804 C130.700482,22.1513611 131.003944,22.2055506 131.329086,22.2055506 C131.654228,22.2055506 131.960399,22.1513611 132.247607,22.0429804 C132.534816,21.9345997 132.784088,21.7557742 132.995431,21.5064986 C133.206773,21.2572229 133.374761,20.9266668 133.499398,20.5148201 C133.624036,20.1029734 133.686354,19.5935918 133.686354,18.9866598 Z" id="40%"></path>
                        <g id="kid/tdah" transform="translate(0.000000, 0.592351)">
                            <ellipse id="Oval" cx="15.6629233" cy="5.62272382" rx="5.62780362" ry="5.62272382"></ellipse>
                            <path d="M24.0561633,17.8711424 L24.5427148,29.8619135 L25.3582084,41.8799786 C25.4337508,42.2574519 25.3851824,42.6408673 25.1888408,42.9795852 C24.7720202,43.6986617 23.8470488,43.9439935 23.1228592,43.5275492 C23.0224499,43.4698089 22.9311724,43.4023783 22.8495355,43.3271378 C22.6591784,43.1462501 22.5312611,42.9462175 22.4533092,42.7293774 C21.8542397,41.6148279 18.4935403,35.3802756 17.750089,34.3952497 C17.0130471,33.4187158 16.1664202,33.2121012 16.007761,33.1810122 L15.6892108,33.1810122 C15.4500108,33.2376522 14.6756649,33.4827457 13.9948279,34.3848116 C13.2303587,35.3976849 9.6985671,41.961095 9.24754249,42.800956 C9.12865809,43.1078434 8.90731238,43.3780038 8.59864624,43.5555019 C7.88296491,43.9670536 6.96886056,43.724604 6.55693706,43.0139757 C6.35986437,42.6739964 6.31343727,42.2884509 6.39698897,41.9336889 L7.15501695,30.5468496 L7.66766057,17.9130542 L0.356091593,6.82965243 C0.131401395,6.55660019 0,6.22216306 0,5.85706319 C0,5.0339598 0.667859966,4.36670266 1.49170698,4.36670266 C1.95592425,4.36670266 2.37061497,4.57855958 2.64420218,4.9107791 L11.5881079,13.1288887 C11.5881079,13.1288887 13.0948142,14.0471916 15.6892108,14.0471916 C18.2836074,14.0471916 20.0890144,13.1288887 20.0890144,13.1288887 L29.076015,4.86831111 C29.3549096,4.53406973 29.7696003,4.32221281 30.2338176,4.32221281 C31.0576646,4.32221281 31.7255245,4.98946995 31.7255245,5.81257334 C31.7255245,6.1776732 31.5941232,6.51211033 31.3759922,6.77125319 L24.0561633,17.8711424 Z" id="Combined-Shape"></path>
                        </g>
                        <g id="kid/tdah-copy-4" transform="translate(35.971068, 0.592351)">
                            <ellipse id="Oval" cx="15.6629233" cy="5.62272382" rx="5.62780362" ry="5.62272382"></ellipse>
                            <path d="M24.0561633,17.8711424 L24.5427148,29.8619135 L25.3582084,41.8799786 C25.4337508,42.2574519 25.3851824,42.6408673 25.1888408,42.9795852 C24.7720202,43.6986617 23.8470488,43.9439935 23.1228592,43.5275492 C23.0224499,43.4698089 22.9311724,43.4023783 22.8495355,43.3271378 C22.6591784,43.1462501 22.5312611,42.9462175 22.4533092,42.7293774 C21.8542397,41.6148279 18.4935403,35.3802756 17.750089,34.3952497 C17.0130471,33.4187158 16.1664202,33.2121012 16.007761,33.1810122 L15.6892108,33.1810122 C15.4500108,33.2376522 14.6756649,33.4827457 13.9948279,34.3848116 C13.2303587,35.3976849 9.6985671,41.961095 9.24754249,42.800956 C9.12865809,43.1078434 8.90731238,43.3780038 8.59864624,43.5555019 C7.88296491,43.9670536 6.96886056,43.724604 6.55693706,43.0139757 C6.35986437,42.6739964 6.31343727,42.2884509 6.39698897,41.9336889 L7.15501695,30.5468496 L7.66766057,17.9130542 L0.356091593,6.82965243 C0.131401395,6.55660019 0,6.22216306 0,5.85706319 C0,5.0339598 0.667859966,4.36670266 1.49170698,4.36670266 C1.95592425,4.36670266 2.37061497,4.57855958 2.64420218,4.9107791 L11.5881079,13.1288887 C11.5881079,13.1288887 13.0948142,14.0471916 15.6892108,14.0471916 C18.2836074,14.0471916 20.0890144,13.1288887 20.0890144,13.1288887 L29.076015,4.86831111 C29.3549096,4.53406973 29.7696003,4.32221281 30.2338176,4.32221281 C31.0576646,4.32221281 31.7255245,4.98946995 31.7255245,5.81257334 C31.7255245,6.1776732 31.5941232,6.51211033 31.3759922,6.77125319 L24.0561633,17.8711424 Z" id="Combined-Shape"></path>
                        </g>
                        <g id="kid/tdah-copy-5" opacity="0.4" transform="translate(74.484230, 30.307564)">
                            <ellipse id="Oval" cx="5.02760502" cy="1.80482493" rx="1.80645548" ry="1.80482493"></ellipse>
                            <path d="M7.72173143,5.73641607 L7.87790847,9.58530558 L8.13967184,13.4429561 C8.16392001,13.5641204 8.14833014,13.687192 8.08530693,13.7959162 C7.95151267,14.0267309 7.65460825,14.1054794 7.42215235,13.9718059 C7.3899222,13.953272 7.36062322,13.9316276 7.33441882,13.9074763 C7.27331651,13.8494136 7.23225667,13.7852056 7.20723505,13.7156026 C7.01494115,13.357846 5.93619812,11.3566317 5.69755943,11.0404505 C5.46097808,10.7269952 5.18922131,10.6606745 5.13829365,10.6506953 L5.03604296,10.6506953 C4.95926273,10.668876 4.71070725,10.747548 4.49216697,11.0371 C4.2467818,11.3622198 3.1131203,13.4689934 2.96834697,13.7385785 C2.93018655,13.8370855 2.85913731,13.9238037 2.76005929,13.9807784 C2.53033441,14.1128814 2.23691821,14.0350581 2.10469584,13.8069551 C2.04143795,13.697826 2.02653542,13.5740707 2.05335448,13.4601964 L2.29667211,9.80516161 L2.46122438,5.74986926 L0.114301005,2.19223411 C0.0421782255,2.10458771 0,1.99723753 0,1.88004498 C0,1.61583895 0.214374804,1.40165764 0.478819526,1.40165764 C0.627827536,1.40165764 0.760938138,1.4696611 0.848756256,1.57629947 L3.71963956,4.21421118 C3.71963956,4.21421118 4.20327368,4.50897509 5.03604296,4.50897509 C5.86881224,4.50897509 6.44832563,4.21421118 6.44832563,4.21421118 L9.33304185,1.56266776 C9.42256357,1.45538041 9.55567417,1.38737695 9.70468218,1.38737695 C9.9691269,1.38737695 10.1835017,1.60155825 10.1835017,1.86576428 C10.1835017,1.98295683 10.1413235,2.09030702 10.0713061,2.17348868 L7.72173143,5.73641607 Z" id="Combined-Shape"></path>
                        </g>
                        <g id="kid/tdah-copy-6" opacity="0.4" transform="translate(89.943739, 30.307564)">
                            <ellipse id="Oval" cx="5.02760502" cy="1.80482493" rx="1.80645548" ry="1.80482493"></ellipse>
                            <path d="M7.72173143,5.73641607 L7.87790847,9.58530558 L8.13967184,13.4429561 C8.16392001,13.5641204 8.14833014,13.687192 8.08530693,13.7959162 C7.95151267,14.0267309 7.65460825,14.1054794 7.42215235,13.9718059 C7.3899222,13.953272 7.36062322,13.9316276 7.33441882,13.9074763 C7.27331651,13.8494136 7.23225667,13.7852056 7.20723505,13.7156026 C7.01494115,13.357846 5.93619812,11.3566317 5.69755943,11.0404505 C5.46097808,10.7269952 5.18922131,10.6606745 5.13829365,10.6506953 L5.03604296,10.6506953 C4.95926273,10.668876 4.71070725,10.747548 4.49216697,11.0371 C4.2467818,11.3622198 3.1131203,13.4689934 2.96834697,13.7385785 C2.93018655,13.8370855 2.85913731,13.9238037 2.76005929,13.9807784 C2.53033441,14.1128814 2.23691821,14.0350581 2.10469584,13.8069551 C2.04143795,13.697826 2.02653542,13.5740707 2.05335448,13.4601964 L2.29667211,9.80516161 L2.46122438,5.74986926 L0.114301005,2.19223411 C0.0421782255,2.10458771 0,1.99723753 0,1.88004498 C0,1.61583895 0.214374804,1.40165764 0.478819526,1.40165764 C0.627827536,1.40165764 0.760938138,1.4696611 0.848756256,1.57629947 L3.71963956,4.21421118 C3.71963956,4.21421118 4.20327368,4.50897509 5.03604296,4.50897509 C5.86881224,4.50897509 6.44832563,4.21421118 6.44832563,4.21421118 L9.33304185,1.56266776 C9.42256357,1.45538041 9.55567417,1.38737695 9.70468218,1.38737695 C9.9691269,1.38737695 10.1835017,1.60155825 10.1835017,1.86576428 C10.1835017,1.98295683 10.1413235,2.09030702 10.0713061,2.17348868 L7.72173143,5.73641607 Z" id="Combined-Shape"></path>
                        </g>
                        <g id="kid/tdah-copy-7" opacity="0.4" transform="translate(106.759345, 30.307564)">
                            <ellipse id="Oval" cx="5.02760502" cy="1.80482493" rx="1.80645548" ry="1.80482493"></ellipse>
                            <path d="M7.72173143,5.73641607 L7.87790847,9.58530558 L8.13967184,13.4429561 C8.16392001,13.5641204 8.14833014,13.687192 8.08530693,13.7959162 C7.95151267,14.0267309 7.65460825,14.1054794 7.42215235,13.9718059 C7.3899222,13.953272 7.36062322,13.9316276 7.33441882,13.9074763 C7.27331651,13.8494136 7.23225667,13.7852056 7.20723505,13.7156026 C7.01494115,13.357846 5.93619812,11.3566317 5.69755943,11.0404505 C5.46097808,10.7269952 5.18922131,10.6606745 5.13829365,10.6506953 L5.03604296,10.6506953 C4.95926273,10.668876 4.71070725,10.747548 4.49216697,11.0371 C4.2467818,11.3622198 3.1131203,13.4689934 2.96834697,13.7385785 C2.93018655,13.8370855 2.85913731,13.9238037 2.76005929,13.9807784 C2.53033441,14.1128814 2.23691821,14.0350581 2.10469584,13.8069551 C2.04143795,13.697826 2.02653542,13.5740707 2.05335448,13.4601964 L2.29667211,9.80516161 L2.46122438,5.74986926 L0.114301005,2.19223411 C0.0421782255,2.10458771 0,1.99723753 0,1.88004498 C0,1.61583895 0.214374804,1.40165764 0.478819526,1.40165764 C0.627827536,1.40165764 0.760938138,1.4696611 0.848756256,1.57629947 L3.71963956,4.21421118 C3.71963956,4.21421118 4.20327368,4.50897509 5.03604296,4.50897509 C5.86881224,4.50897509 6.44832563,4.21421118 6.44832563,4.21421118 L9.33304185,1.56266776 C9.42256357,1.45538041 9.55567417,1.38737695 9.70468218,1.38737695 C9.9691269,1.38737695 10.1835017,1.60155825 10.1835017,1.86576428 C10.1835017,1.98295683 10.1413235,2.09030702 10.0713061,2.17348868 L7.72173143,5.73641607 Z" id="Combined-Shape"></path>
                        </g>
                    </g>
                </g>
            </g>
        </g>
    </g>
</svg>