<?xml version="1.0" encoding="UTF-8" standalone="no"?>
<svg width="208px" height="83px" viewBox="0 0 208 83" version="1.1" xmlns="http://www.w3.org/2000/svg" xmlns:xlink="http://www.w3.org/1999/xlink">
    <!-- Generator: Sketch 43.2 (39069) - http://www.bohemiancoding.com/sketch -->
    <title>img_group_kids_1</title>
    <desc>Created with Sketch.</desc>
    <defs></defs>
    <g id="00-landingpage" stroke="none" stroke-width="1" fill="none" fill-rule="evenodd">
        <g id="landing-desktop" transform="translate(-203.000000, -714.000000)">
            <g id="Group-9" transform="translate(203.000000, 714.000000)">
                <g id="Group-2">
                    <g id="img_group_kids_1">
                        <g id="kid/tdah" fill="#157EDE">
                            <g>
                                <ellipse id="Oval" cx="29.1217949" cy="10.5356037" rx="10.4636752" ry="10.5356037"></ellipse>
                                <path d="M44.7271967,33.4861323 L45.6318333,55.953893 L47.1480661,78.4727958 C47.2885207,79.1800881 47.1982182,79.8985143 46.8331639,80.5331885 C46.0581768,81.8805613 44.3383938,82.3402529 42.9919211,81.5599385 C42.8052318,81.4517474 42.635521,81.325399 42.4837352,81.1844168 C42.1298075,80.8454775 41.8919733,80.4706657 41.7470386,80.0643606 C40.6331994,77.9759685 34.3847107,66.2939485 33.0024248,64.4482517 C31.632056,62.6184671 30.0579377,62.231322 29.7629454,62.1730688 L29.1706706,62.1730688 C28.7259304,62.2791983 27.2862028,62.7384433 26.0203346,64.4286934 C24.5989707,66.3265692 18.0323734,78.6247879 17.1937913,80.1984813 C16.9727517,80.7735129 16.5612075,81.2797271 15.9873101,81.6123149 C14.6566565,82.3834618 12.9570785,81.9291709 12.1911965,80.5976278 C11.8247828,79.9605902 11.7384617,79.2381726 11.8938079,78.5734356 L13.3031958,57.2372951 L14.256345,33.5646649 L0.662074767,12.7970915 C0.244312277,12.2854587 0,11.6588057 0,10.9746982 C0,9.43240452 1.24174016,8.1821285 2.77350427,8.1821285 C3.63661517,8.1821285 4.40764226,8.57909634 4.9163181,9.20159414 L21.5455629,24.6003134 C21.5455629,24.6003134 24.3469551,26.3209877 29.1706706,26.3209877 C33.9943861,26.3209877 37.3511474,24.6003134 37.3511474,24.6003134 L54.0605177,9.12201955 C54.5790615,8.49573327 55.3500886,8.09876543 56.2131995,8.09876543 C57.7449636,8.09876543 58.9867037,9.34904146 58.9867037,10.8913351 C58.9867037,11.5754426 58.7423914,12.2020956 58.3368245,12.6876657 L44.7271967,33.4861323 Z" id="Combined-Shape"></path>
                            </g>
                        </g>
                        <g id="kid/normal" transform="translate(65.060697, 11.712963)" fill="#DCDEE3">
                            <g id="normal-kid">
                                <ellipse id="Oval" cx="9.36556604" cy="3.72600619" rx="3.71933962" ry="3.72600619"></ellipse>
                                <path d="M14.8572345,15.877243 L15.0528788,20.9703584 L15.5019684,27.6751033 L15.5014652,27.678247 C15.5561708,27.9154875 15.5247116,28.1730438 15.3934856,28.4003338 C15.1180145,28.8774637 14.5072175,29.0405402 14.0292324,28.7645754 C13.9630892,28.7263876 13.9029552,28.6817938 13.8491637,28.6320338 L13.8426983,28.6382743 L13.8160373,28.5999318 C13.7227999,28.5052822 13.6509068,28.3943064 13.6023825,28.2745333 C13.264977,27.6430624 10.9804452,23.3774774 10.4815601,22.7131925 C10.1451371,22.2652321 9.77394382,22.0617452 9.54243902,21.9720639 C9.31002054,22.0651194 8.94891994,22.2694758 8.62087864,22.7062756 C8.09634949,23.4047066 5.59788089,28.0841871 5.46396686,28.3352051 C5.41603788,28.4411382 5.34918168,28.539246 5.26490292,28.623933 L5.25974047,28.6313574 L5.25857578,28.6302332 C5.19975902,28.6882693 5.13264647,28.7398349 5.05773411,28.7830856 C4.58536461,29.0558082 3.98174365,28.8946476 3.70950895,28.4231233 C3.57782811,28.1950454 3.54780116,27.9361287 3.60535547,27.6987056 L3.60047031,27.6681864 L4.08735354,20.3991974 L4.26736118,15.7131431 L1.87295709,18.7411998 L1.86889474,18.7435363 C1.72478776,18.9894791 1.47594784,19.1711972 1.17275458,19.2192183 C0.634988506,19.3043921 0.129872214,18.9367121 0.0445457687,18.3979822 C0.00653012932,18.1579609 0.0582559199,17.9244813 0.174862509,17.7318257 L0.177219611,17.723706 L3.86096457,9.86836188 C3.93069938,9.18138317 4.4992154,8.64216483 5.19797012,8.61990995 L5.19811321,8.61919505 C5.19811321,8.61919505 5.1992365,8.61940052 5.20144976,8.61980343 C5.2152253,8.61939878 5.22905117,8.61919505 5.24292453,8.61919505 C5.42235181,8.61919505 5.59383387,8.65327359 5.75127314,8.7153222 C6.67314777,8.87022822 8.52440467,9.15789474 9.55914601,9.15789474 C10.5780573,9.15789474 12.327442,8.87896267 13.2284601,8.72252343 C13.3907697,8.65591529 13.5684605,8.61919505 13.7547124,8.61919505 C13.7693091,8.61919505 13.7838532,8.61942058 13.7983414,8.61986836 C13.8006927,8.6194226 13.8018868,8.61919505 13.8018868,8.61919505 L13.8020015,8.61998625 C14.4985909,8.64332961 15.0652314,9.18045601 15.1363402,9.86512722 L18.7867634,17.6846888 L18.7891174,17.6927979 C18.9057285,17.8854556 18.9574569,18.1189393 18.9194406,18.358965 C18.8341141,18.897695 18.3289978,19.2653749 17.7912318,19.1802012 C17.4880397,19.1321802 17.2392005,18.9504634 17.0950933,18.704522 L17.0910259,18.7021826 L14.8572345,15.877243 Z" id="Combined-Shape"></path>
                            </g>
                        </g>
                        <g id="kid/normal" transform="translate(65.060697, 53.472222)" fill="#DCDEE3">
                            <g id="normal-kid">
                                <ellipse id="Oval" cx="9.36556604" cy="3.72600619" rx="3.71933962" ry="3.72600619"></ellipse>
                                <path d="M14.8572345,15.877243 L15.0528788,20.9703584 L15.5019684,27.6751033 L15.5014652,27.678247 C15.5561708,27.9154875 15.5247116,28.1730438 15.3934856,28.4003338 C15.1180145,28.8774637 14.5072175,29.0405402 14.0292324,28.7645754 C13.9630892,28.7263876 13.9029552,28.6817938 13.8491637,28.6320338 L13.8426983,28.6382743 L13.8160373,28.5999318 C13.7227999,28.5052822 13.6509068,28.3943064 13.6023825,28.2745333 C13.264977,27.6430624 10.9804452,23.3774774 10.4815601,22.7131925 C10.1451371,22.2652321 9.77394382,22.0617452 9.54243902,21.9720639 C9.31002054,22.0651194 8.94891994,22.2694758 8.62087864,22.7062756 C8.09634949,23.4047066 5.59788089,28.0841871 5.46396686,28.3352051 C5.41603788,28.4411382 5.34918168,28.539246 5.26490292,28.623933 L5.25974047,28.6313574 L5.25857578,28.6302332 C5.19975902,28.6882693 5.13264647,28.7398349 5.05773411,28.7830856 C4.58536461,29.0558082 3.98174365,28.8946476 3.70950895,28.4231233 C3.57782811,28.1950454 3.54780116,27.9361287 3.60535547,27.6987056 L3.60047031,27.6681864 L4.08735354,20.3991974 L4.26736118,15.7131431 L1.87295709,18.7411998 L1.86889474,18.7435363 C1.72478776,18.9894791 1.47594784,19.1711972 1.17275458,19.2192183 C0.634988506,19.3043921 0.129872214,18.9367121 0.0445457687,18.3979822 C0.00653012932,18.1579609 0.0582559199,17.9244813 0.174862509,17.7318257 L0.177219611,17.723706 L3.86096457,9.86836188 C3.93069938,9.18138317 4.4992154,8.64216483 5.19797012,8.61990995 L5.19811321,8.61919505 C5.19811321,8.61919505 5.1992365,8.61940052 5.20144976,8.61980343 C5.2152253,8.61939878 5.22905117,8.61919505 5.24292453,8.61919505 C5.42235181,8.61919505 5.59383387,8.65327359 5.75127314,8.7153222 C6.67314777,8.87022822 8.52440467,9.15789474 9.55914601,9.15789474 C10.5780573,9.15789474 12.327442,8.87896267 13.2284601,8.72252343 C13.3907697,8.65591529 13.5684605,8.61919505 13.7547124,8.61919505 C13.7693091,8.61919505 13.7838532,8.61942058 13.7983414,8.61986836 C13.8006927,8.6194226 13.8018868,8.61919505 13.8018868,8.61919505 L13.8020015,8.61998625 C14.4985909,8.64332961 15.0652314,9.18045601 15.1363402,9.86512722 L18.7867634,17.6846888 L18.7891174,17.6927979 C18.9057285,17.8854556 18.9574569,18.1189393 18.9194406,18.358965 C18.8341141,18.897695 18.3289978,19.2653749 17.7912318,19.1802012 C17.4880397,19.1321802 17.2392005,18.9504634 17.0950933,18.704522 L17.0910259,18.7021826 L14.8572345,15.877243 Z" id="Combined-Shape"></path>
                            </g>
                        </g>
                        <g id="kid/normal" transform="translate(126.055101, 11.712963)" fill="#DCDEE3">
                            <g id="normal-kid">
                                <ellipse id="Oval" cx="9.36556604" cy="3.72600619" rx="3.71933962" ry="3.72600619"></ellipse>
                                <path d="M14.8572345,15.877243 L15.0528788,20.9703584 L15.5019684,27.6751033 L15.5014652,27.678247 C15.5561708,27.9154875 15.5247116,28.1730438 15.3934856,28.4003338 C15.1180145,28.8774637 14.5072175,29.0405402 14.0292324,28.7645754 C13.9630892,28.7263876 13.9029552,28.6817938 13.8491637,28.6320338 L13.8426983,28.6382743 L13.8160373,28.5999318 C13.7227999,28.5052822 13.6509068,28.3943064 13.6023825,28.2745333 C13.264977,27.6430624 10.9804452,23.3774774 10.4815601,22.7131925 C10.1451371,22.2652321 9.77394382,22.0617452 9.54243902,21.9720639 C9.31002054,22.0651194 8.94891994,22.2694758 8.62087864,22.7062756 C8.09634949,23.4047066 5.59788089,28.0841871 5.46396686,28.3352051 C5.41603788,28.4411382 5.34918168,28.539246 5.26490292,28.623933 L5.25974047,28.6313574 L5.25857578,28.6302332 C5.19975902,28.6882693 5.13264647,28.7398349 5.05773411,28.7830856 C4.58536461,29.0558082 3.98174365,28.8946476 3.70950895,28.4231233 C3.57782811,28.1950454 3.54780116,27.9361287 3.60535547,27.6987056 L3.60047031,27.6681864 L4.08735354,20.3991974 L4.26736118,15.7131431 L1.87295709,18.7411998 L1.86889474,18.7435363 C1.72478776,18.9894791 1.47594784,19.1711972 1.17275458,19.2192183 C0.634988506,19.3043921 0.129872214,18.9367121 0.0445457687,18.3979822 C0.00653012932,18.1579609 0.0582559199,17.9244813 0.174862509,17.7318257 L0.177219611,17.723706 L3.86096457,9.86836188 C3.93069938,9.18138317 4.4992154,8.64216483 5.19797012,8.61990995 L5.19811321,8.61919505 C5.19811321,8.61919505 5.1992365,8.61940052 5.20144976,8.61980343 C5.2152253,8.61939878 5.22905117,8.61919505 5.24292453,8.61919505 C5.42235181,8.61919505 5.59383387,8.65327359 5.75127314,8.7153222 C6.67314777,8.87022822 8.52440467,9.15789474 9.55914601,9.15789474 C10.5780573,9.15789474 12.327442,8.87896267 13.2284601,8.72252343 C13.3907697,8.65591529 13.5684605,8.61919505 13.7547124,8.61919505 C13.7693091,8.61919505 13.7838532,8.61942058 13.7983414,8.61986836 C13.8006927,8.6194226 13.8018868,8.61919505 13.8018868,8.61919505 L13.8020015,8.61998625 C14.4985909,8.64332961 15.0652314,9.18045601 15.1363402,9.86512722 L18.7867634,17.6846888 L18.7891174,17.6927979 C18.9057285,17.8854556 18.9574569,18.1189393 18.9194406,18.358965 C18.8341141,18.897695 18.3289978,19.2653749 17.7912318,19.1802012 C17.4880397,19.1321802 17.2392005,18.9504634 17.0950933,18.704522 L17.0910259,18.7021826 L14.8572345,15.877243 Z" id="Combined-Shape"></path>
                            </g>
                        </g>
                        <g id="kid/normal" transform="translate(127.579961, 53.472222)" fill="#DCDEE3">
                            <g id="normal-kid">
                                <ellipse id="Oval" cx="9.36556604" cy="3.72600619" rx="3.71933962" ry="3.72600619"></ellipse>
                                <path d="M14.8572345,15.877243 L15.0528788,20.9703584 L15.5019684,27.6751033 L15.5014652,27.678247 C15.5561708,27.9154875 15.5247116,28.1730438 15.3934856,28.4003338 C15.1180145,28.8774637 14.5072175,29.0405402 14.0292324,28.7645754 C13.9630892,28.7263876 13.9029552,28.6817938 13.8491637,28.6320338 L13.8426983,28.6382743 L13.8160373,28.5999318 C13.7227999,28.5052822 13.6509068,28.3943064 13.6023825,28.2745333 C13.264977,27.6430624 10.9804452,23.3774774 10.4815601,22.7131925 C10.1451371,22.2652321 9.77394382,22.0617452 9.54243902,21.9720639 C9.31002054,22.0651194 8.94891994,22.2694758 8.62087864,22.7062756 C8.09634949,23.4047066 5.59788089,28.0841871 5.46396686,28.3352051 C5.41603788,28.4411382 5.34918168,28.539246 5.26490292,28.623933 L5.25974047,28.6313574 L5.25857578,28.6302332 C5.19975902,28.6882693 5.13264647,28.7398349 5.05773411,28.7830856 C4.58536461,29.0558082 3.98174365,28.8946476 3.70950895,28.4231233 C3.57782811,28.1950454 3.54780116,27.9361287 3.60535547,27.6987056 L3.60047031,27.6681864 L4.08735354,20.3991974 L4.26736118,15.7131431 L1.87295709,18.7411998 L1.86889474,18.7435363 C1.72478776,18.9894791 1.47594784,19.1711972 1.17275458,19.2192183 C0.634988506,19.3043921 0.129872214,18.9367121 0.0445457687,18.3979822 C0.00653012932,18.1579609 0.0582559199,17.9244813 0.174862509,17.7318257 L0.177219611,17.723706 L3.86096457,9.86836188 C3.93069938,9.18138317 4.4992154,8.64216483 5.19797012,8.61990995 L5.19811321,8.61919505 C5.19811321,8.61919505 5.1992365,8.61940052 5.20144976,8.61980343 C5.2152253,8.61939878 5.22905117,8.61919505 5.24292453,8.61919505 C5.42235181,8.61919505 5.59383387,8.65327359 5.75127314,8.7153222 C6.67314777,8.87022822 8.52440467,9.15789474 9.55914601,9.15789474 C10.5780573,9.15789474 12.327442,8.87896267 13.2284601,8.72252343 C13.3907697,8.65591529 13.5684605,8.61919505 13.7547124,8.61919505 C13.7693091,8.61919505 13.7838532,8.61942058 13.7983414,8.61986836 C13.8006927,8.6194226 13.8018868,8.61919505 13.8018868,8.61919505 L13.8020015,8.61998625 C14.4985909,8.64332961 15.0652314,9.18045601 15.1363402,9.86512722 L18.7867634,17.6846888 L18.7891174,17.6927979 C18.9057285,17.8854556 18.9574569,18.1189393 18.9194406,18.358965 C18.8341141,18.897695 18.3289978,19.2653749 17.7912318,19.1802012 C17.4880397,19.1321802 17.2392005,18.9504634 17.0950933,18.704522 L17.0910259,18.7021826 L14.8572345,15.877243 Z" id="Combined-Shape"></path>
                            </g>
                        </g>
                        <g id="kid/normal" transform="translate(95.557899, 11.712963)" fill="#DCDEE3">
                            <g id="normal-kid">
                                <ellipse id="Oval" cx="9.36556604" cy="3.72600619" rx="3.71933962" ry="3.72600619"></ellipse>
                                <path d="M14.8572345,15.877243 L15.0528788,20.9703584 L15.5019684,27.6751033 L15.5014652,27.678247 C15.5561708,27.9154875 15.5247116,28.1730438 15.3934856,28.4003338 C15.1180145,28.8774637 14.5072175,29.0405402 14.0292324,28.7645754 C13.9630892,28.7263876 13.9029552,28.6817938 13.8491637,28.6320338 L13.8426983,28.6382743 L13.8160373,28.5999318 C13.7227999,28.5052822 13.6509068,28.3943064 13.6023825,28.2745333 C13.264977,27.6430624 10.9804452,23.3774774 10.4815601,22.7131925 C10.1451371,22.2652321 9.77394382,22.0617452 9.54243902,21.9720639 C9.31002054,22.0651194 8.94891994,22.2694758 8.62087864,22.7062756 C8.09634949,23.4047066 5.59788089,28.0841871 5.46396686,28.3352051 C5.41603788,28.4411382 5.34918168,28.539246 5.26490292,28.623933 L5.25974047,28.6313574 L5.25857578,28.6302332 C5.19975902,28.6882693 5.13264647,28.7398349 5.05773411,28.7830856 C4.58536461,29.0558082 3.98174365,28.8946476 3.70950895,28.4231233 C3.57782811,28.1950454 3.54780116,27.9361287 3.60535547,27.6987056 L3.60047031,27.6681864 L4.08735354,20.3991974 L4.26736118,15.7131431 L1.87295709,18.7411998 L1.86889474,18.7435363 C1.72478776,18.9894791 1.47594784,19.1711972 1.17275458,19.2192183 C0.634988506,19.3043921 0.129872214,18.9367121 0.0445457687,18.3979822 C0.00653012932,18.1579609 0.0582559199,17.9244813 0.174862509,17.7318257 L0.177219611,17.723706 L3.86096457,9.86836188 C3.93069938,9.18138317 4.4992154,8.64216483 5.19797012,8.61990995 L5.19811321,8.61919505 C5.19811321,8.61919505 5.1992365,8.61940052 5.20144976,8.61980343 C5.2152253,8.61939878 5.22905117,8.61919505 5.24292453,8.61919505 C5.42235181,8.61919505 5.59383387,8.65327359 5.75127314,8.7153222 C6.67314777,8.87022822 8.52440467,9.15789474 9.55914601,9.15789474 C10.5780573,9.15789474 12.327442,8.87896267 13.2284601,8.72252343 C13.3907697,8.65591529 13.5684605,8.61919505 13.7547124,8.61919505 C13.7693091,8.61919505 13.7838532,8.61942058 13.7983414,8.61986836 C13.8006927,8.6194226 13.8018868,8.61919505 13.8018868,8.61919505 L13.8020015,8.61998625 C14.4985909,8.64332961 15.0652314,9.18045601 15.1363402,9.86512722 L18.7867634,17.6846888 L18.7891174,17.6927979 C18.9057285,17.8854556 18.9574569,18.1189393 18.9194406,18.358965 C18.8341141,18.897695 18.3289978,19.2653749 17.7912318,19.1802012 C17.4880397,19.1321802 17.2392005,18.9504634 17.0950933,18.704522 L17.0910259,18.7021826 L14.8572345,15.877243 Z" id="Combined-Shape"></path>
                            </g>
                        </g>
                        <g id="kid/normal" transform="translate(96.066186, 53.472222)" fill="#DCDEE3">
                            <g id="normal-kid">
                                <ellipse id="Oval" cx="9.36556604" cy="3.72600619" rx="3.71933962" ry="3.72600619"></ellipse>
                                <path d="M14.8572345,15.877243 L15.0528788,20.9703584 L15.5019684,27.6751033 L15.5014652,27.678247 C15.5561708,27.9154875 15.5247116,28.1730438 15.3934856,28.4003338 C15.1180145,28.8774637 14.5072175,29.0405402 14.0292324,28.7645754 C13.9630892,28.7263876 13.9029552,28.6817938 13.8491637,28.6320338 L13.8426983,28.6382743 L13.8160373,28.5999318 C13.7227999,28.5052822 13.6509068,28.3943064 13.6023825,28.2745333 C13.264977,27.6430624 10.9804452,23.3774774 10.4815601,22.7131925 C10.1451371,22.2652321 9.77394382,22.0617452 9.54243902,21.9720639 C9.31002054,22.0651194 8.94891994,22.2694758 8.62087864,22.7062756 C8.09634949,23.4047066 5.59788089,28.0841871 5.46396686,28.3352051 C5.41603788,28.4411382 5.34918168,28.539246 5.26490292,28.623933 L5.25974047,28.6313574 L5.25857578,28.6302332 C5.19975902,28.6882693 5.13264647,28.7398349 5.05773411,28.7830856 C4.58536461,29.0558082 3.98174365,28.8946476 3.70950895,28.4231233 C3.57782811,28.1950454 3.54780116,27.9361287 3.60535547,27.6987056 L3.60047031,27.6681864 L4.08735354,20.3991974 L4.26736118,15.7131431 L1.87295709,18.7411998 L1.86889474,18.7435363 C1.72478776,18.9894791 1.47594784,19.1711972 1.17275458,19.2192183 C0.634988506,19.3043921 0.129872214,18.9367121 0.0445457687,18.3979822 C0.00653012932,18.1579609 0.0582559199,17.9244813 0.174862509,17.7318257 L0.177219611,17.723706 L3.86096457,9.86836188 C3.93069938,9.18138317 4.4992154,8.64216483 5.19797012,8.61990995 L5.19811321,8.61919505 C5.19811321,8.61919505 5.1992365,8.61940052 5.20144976,8.61980343 C5.2152253,8.61939878 5.22905117,8.61919505 5.24292453,8.61919505 C5.42235181,8.61919505 5.59383387,8.65327359 5.75127314,8.7153222 C6.67314777,8.87022822 8.52440467,9.15789474 9.55914601,9.15789474 C10.5780573,9.15789474 12.327442,8.87896267 13.2284601,8.72252343 C13.3907697,8.65591529 13.5684605,8.61919505 13.7547124,8.61919505 C13.7693091,8.61919505 13.7838532,8.61942058 13.7983414,8.61986836 C13.8006927,8.6194226 13.8018868,8.61919505 13.8018868,8.61919505 L13.8020015,8.61998625 C14.4985909,8.64332961 15.0652314,9.18045601 15.1363402,9.86512722 L18.7867634,17.6846888 L18.7891174,17.6927979 C18.9057285,17.8854556 18.9574569,18.1189393 18.9194406,18.358965 C18.8341141,18.897695 18.3289978,19.2653749 17.7912318,19.1802012 C17.4880397,19.1321802 17.2392005,18.9504634 17.0950933,18.704522 L17.0910259,18.7021826 L14.8572345,15.877243 Z" id="Combined-Shape"></path>
                            </g>
                        </g>
                        <g id="kid/normal" transform="translate(156.552303, 11.712963)" fill="#DCDEE3">
                            <g id="normal-kid">
                                <ellipse id="Oval" cx="9.36556604" cy="3.72600619" rx="3.71933962" ry="3.72600619"></ellipse>
                                <path d="M14.8572345,15.877243 L15.0528788,20.9703584 L15.5019684,27.6751033 L15.5014652,27.678247 C15.5561708,27.9154875 15.5247116,28.1730438 15.3934856,28.4003338 C15.1180145,28.8774637 14.5072175,29.0405402 14.0292324,28.7645754 C13.9630892,28.7263876 13.9029552,28.6817938 13.8491637,28.6320338 L13.8426983,28.6382743 L13.8160373,28.5999318 C13.7227999,28.5052822 13.6509068,28.3943064 13.6023825,28.2745333 C13.264977,27.6430624 10.9804452,23.3774774 10.4815601,22.7131925 C10.1451371,22.2652321 9.77394382,22.0617452 9.54243902,21.9720639 C9.31002054,22.0651194 8.94891994,22.2694758 8.62087864,22.7062756 C8.09634949,23.4047066 5.59788089,28.0841871 5.46396686,28.3352051 C5.41603788,28.4411382 5.34918168,28.539246 5.26490292,28.623933 L5.25974047,28.6313574 L5.25857578,28.6302332 C5.19975902,28.6882693 5.13264647,28.7398349 5.05773411,28.7830856 C4.58536461,29.0558082 3.98174365,28.8946476 3.70950895,28.4231233 C3.57782811,28.1950454 3.54780116,27.9361287 3.60535547,27.6987056 L3.60047031,27.6681864 L4.08735354,20.3991974 L4.26736118,15.7131431 L1.87295709,18.7411998 L1.86889474,18.7435363 C1.72478776,18.9894791 1.47594784,19.1711972 1.17275458,19.2192183 C0.634988506,19.3043921 0.129872214,18.9367121 0.0445457687,18.3979822 C0.00653012932,18.1579609 0.0582559199,17.9244813 0.174862509,17.7318257 L0.177219611,17.723706 L3.86096457,9.86836188 C3.93069938,9.18138317 4.4992154,8.64216483 5.19797012,8.61990995 L5.19811321,8.61919505 C5.19811321,8.61919505 5.1992365,8.61940052 5.20144976,8.61980343 C5.2152253,8.61939878 5.22905117,8.61919505 5.24292453,8.61919505 C5.42235181,8.61919505 5.59383387,8.65327359 5.75127314,8.7153222 C6.67314777,8.87022822 8.52440467,9.15789474 9.55914601,9.15789474 C10.5780573,9.15789474 12.327442,8.87896267 13.2284601,8.72252343 C13.3907697,8.65591529 13.5684605,8.61919505 13.7547124,8.61919505 C13.7693091,8.61919505 13.7838532,8.61942058 13.7983414,8.61986836 C13.8006927,8.6194226 13.8018868,8.61919505 13.8018868,8.61919505 L13.8020015,8.61998625 C14.4985909,8.64332961 15.0652314,9.18045601 15.1363402,9.86512722 L18.7867634,17.6846888 L18.7891174,17.6927979 C18.9057285,17.8854556 18.9574569,18.1189393 18.9194406,18.358965 C18.8341141,18.897695 18.3289978,19.2653749 17.7912318,19.1802012 C17.4880397,19.1321802 17.2392005,18.9504634 17.0950933,18.704522 L17.0910259,18.7021826 L14.8572345,15.877243 Z" id="Combined-Shape"></path>
                            </g>
                        </g>
                        <g id="kid/normal" transform="translate(158.585449, 53.472222)" fill="#DCDEE3">
                            <g id="normal-kid">
                                <ellipse id="Oval" cx="9.36556604" cy="3.72600619" rx="3.71933962" ry="3.72600619"></ellipse>
                                <path d="M14.8572345,15.877243 L15.0528788,20.9703584 L15.5019684,27.6751033 L15.5014652,27.678247 C15.5561708,27.9154875 15.5247116,28.1730438 15.3934856,28.4003338 C15.1180145,28.8774637 14.5072175,29.0405402 14.0292324,28.7645754 C13.9630892,28.7263876 13.9029552,28.6817938 13.8491637,28.6320338 L13.8426983,28.6382743 L13.8160373,28.5999318 C13.7227999,28.5052822 13.6509068,28.3943064 13.6023825,28.2745333 C13.264977,27.6430624 10.9804452,23.3774774 10.4815601,22.7131925 C10.1451371,22.2652321 9.77394382,22.0617452 9.54243902,21.9720639 C9.31002054,22.0651194 8.94891994,22.2694758 8.62087864,22.7062756 C8.09634949,23.4047066 5.59788089,28.0841871 5.46396686,28.3352051 C5.41603788,28.4411382 5.34918168,28.539246 5.26490292,28.623933 L5.25974047,28.6313574 L5.25857578,28.6302332 C5.19975902,28.6882693 5.13264647,28.7398349 5.05773411,28.7830856 C4.58536461,29.0558082 3.98174365,28.8946476 3.70950895,28.4231233 C3.57782811,28.1950454 3.54780116,27.9361287 3.60535547,27.6987056 L3.60047031,27.6681864 L4.08735354,20.3991974 L4.26736118,15.7131431 L1.87295709,18.7411998 L1.86889474,18.7435363 C1.72478776,18.9894791 1.47594784,19.1711972 1.17275458,19.2192183 C0.634988506,19.3043921 0.129872214,18.9367121 0.0445457687,18.3979822 C0.00653012932,18.1579609 0.0582559199,17.9244813 0.174862509,17.7318257 L0.177219611,17.723706 L3.86096457,9.86836188 C3.93069938,9.18138317 4.4992154,8.64216483 5.19797012,8.61990995 L5.19811321,8.61919505 C5.19811321,8.61919505 5.1992365,8.61940052 5.20144976,8.61980343 C5.2152253,8.61939878 5.22905117,8.61919505 5.24292453,8.61919505 C5.42235181,8.61919505 5.59383387,8.65327359 5.75127314,8.7153222 C6.67314777,8.87022822 8.52440467,9.15789474 9.55914601,9.15789474 C10.5780573,9.15789474 12.327442,8.87896267 13.2284601,8.72252343 C13.3907697,8.65591529 13.5684605,8.61919505 13.7547124,8.61919505 C13.7693091,8.61919505 13.7838532,8.61942058 13.7983414,8.61986836 C13.8006927,8.6194226 13.8018868,8.61919505 13.8018868,8.61919505 L13.8020015,8.61998625 C14.4985909,8.64332961 15.0652314,9.18045601 15.1363402,9.86512722 L18.7867634,17.6846888 L18.7891174,17.6927979 C18.9057285,17.8854556 18.9574569,18.1189393 18.9194406,18.358965 C18.8341141,18.897695 18.3289978,19.2653749 17.7912318,19.1802012 C17.4880397,19.1321802 17.2392005,18.9504634 17.0950933,18.704522 L17.0910259,18.7021826 L14.8572345,15.877243 Z" id="Combined-Shape"></path>
                            </g>
                        </g>
                        <g id="kid/normal" transform="translate(189.082651, 53.472222)" fill="#DCDEE3">
                            <g id="normal-kid">
                                <ellipse id="Oval" cx="9.36556604" cy="3.72600619" rx="3.71933962" ry="3.72600619"></ellipse>
                                <path d="M14.8572345,15.877243 L15.0528788,20.9703584 L15.5019684,27.6751033 L15.5014652,27.678247 C15.5561708,27.9154875 15.5247116,28.1730438 15.3934856,28.4003338 C15.1180145,28.8774637 14.5072175,29.0405402 14.0292324,28.7645754 C13.9630892,28.7263876 13.9029552,28.6817938 13.8491637,28.6320338 L13.8426983,28.6382743 L13.8160373,28.5999318 C13.7227999,28.5052822 13.6509068,28.3943064 13.6023825,28.2745333 C13.264977,27.6430624 10.9804452,23.3774774 10.4815601,22.7131925 C10.1451371,22.2652321 9.77394382,22.0617452 9.54243902,21.9720639 C9.31002054,22.0651194 8.94891994,22.2694758 8.62087864,22.7062756 C8.09634949,23.4047066 5.59788089,28.0841871 5.46396686,28.3352051 C5.41603788,28.4411382 5.34918168,28.539246 5.26490292,28.623933 L5.25974047,28.6313574 L5.25857578,28.6302332 C5.19975902,28.6882693 5.13264647,28.7398349 5.05773411,28.7830856 C4.58536461,29.0558082 3.98174365,28.8946476 3.70950895,28.4231233 C3.57782811,28.1950454 3.54780116,27.9361287 3.60535547,27.6987056 L3.60047031,27.6681864 L4.08735354,20.3991974 L4.26736118,15.7131431 L1.87295709,18.7411998 L1.86889474,18.7435363 C1.72478776,18.9894791 1.47594784,19.1711972 1.17275458,19.2192183 C0.634988506,19.3043921 0.129872214,18.9367121 0.0445457687,18.3979822 C0.00653012932,18.1579609 0.0582559199,17.9244813 0.174862509,17.7318257 L0.177219611,17.723706 L3.86096457,9.86836188 C3.93069938,9.18138317 4.4992154,8.64216483 5.19797012,8.61990995 L5.19811321,8.61919505 C5.19811321,8.61919505 5.1992365,8.61940052 5.20144976,8.61980343 C5.2152253,8.61939878 5.22905117,8.61919505 5.24292453,8.61919505 C5.42235181,8.61919505 5.59383387,8.65327359 5.75127314,8.7153222 C6.67314777,8.87022822 8.52440467,9.15789474 9.55914601,9.15789474 C10.5780573,9.15789474 12.327442,8.87896267 13.2284601,8.72252343 C13.3907697,8.65591529 13.5684605,8.61919505 13.7547124,8.61919505 C13.7693091,8.61919505 13.7838532,8.61942058 13.7983414,8.61986836 C13.8006927,8.6194226 13.8018868,8.61919505 13.8018868,8.61919505 L13.8020015,8.61998625 C14.4985909,8.64332961 15.0652314,9.18045601 15.1363402,9.86512722 L18.7867634,17.6846888 L18.7891174,17.6927979 C18.9057285,17.8854556 18.9574569,18.1189393 18.9194406,18.358965 C18.8341141,18.897695 18.3289978,19.2653749 17.7912318,19.1802012 C17.4880397,19.1321802 17.2392005,18.9504634 17.0950933,18.704522 L17.0910259,18.7021826 L14.8572345,15.877243 Z" id="Combined-Shape"></path>
                            </g>
                        </g>
                    </g>
                </g>
            </g>
        </g>
    </g>
</svg>