<?xml version="1.0" encoding="UTF-8" standalone="no"?>
<svg width="163px" height="51px" viewBox="0 0 163 51" version="1.1" xmlns="http://www.w3.org/2000/svg" xmlns:xlink="http://www.w3.org/1999/xlink">
    <!-- Generator: Sketch 44 (41411) - http://www.bohemiancoding.com/sketch -->
    <title>logo</title>
    <desc>Created with Sketch.</desc>
    <defs></defs>
    <g id="Symbols" stroke="none" stroke-width="1" fill="none" fill-rule="evenodd">
        <g id="logo" fill="#FFFFFF">
            <g id="Scribens-logo">
                <path d="M26,33.5430017 L26,39.9782609 C26,41.0948366 26.8954305,42 28,42 C29.1045695,42 30,41.0948366 30,39.9782609 L30,31.8913043 L29.9968448,31.8913043 L29.9713475,26.4453145 C30.0058206,25.9554381 30.0866443,25.2823311 30.2755568,24.703544 C30.6200099,23.648214 30.9336277,23.3816386 30.9336277,23.3816386 L35.5862813,18.5636747 L35.562158,18.5403791 C35.8340608,18.2405742 36,17.8409633 36,17.4021739 C36,16.4716942 35.2538079,15.7173913 34.3333333,15.7173913 C33.7186251,15.7173913 33.1816433,16.0537945 32.8927208,16.5544165 L29.9393582,19.6127131 L29.9392264,19.5845762 C29.9392264,19.5845762 27.8352574,21.8990545 25.2562605,21.8812442 C23.197896,21.8670293 21.1219802,20.4125158 20.367718,19.8258381 L17.0701527,16.4111092 L17.0370795,16.4430476 C16.7361735,16.0045396 16.234593,15.7173913 15.6666667,15.7173913 C14.7461921,15.7173913 14,16.4716942 14,17.4021739 C14,17.9931624 14.3010196,18.5130797 14.7565231,18.8137974 L19.325007,23.544601 C19.325007,23.544601 19.7411358,23.9674224 19.9325026,24.6840263 C19.9774496,24.8523377 20.0123564,25.0767824 20.0394599,25.3217069 L20.0036712,31.8913043 L20,31.8913043 L20,39.9782609 C20,41.0948366 20.8954305,42 22,42 C23.1045695,42 24,41.0948366 24,39.9782609 L24,33.5075997 C24.0274007,33.2813197 24.1782264,32.5665336 24.9903158,32.5665336 C25.8514746,32.5665336 25.9819131,33.3703096 26,33.5430017 Z M25,51 C11.1928813,51 0,39.5832611 0,25.5 C0,11.4167389 11.1928813,0 25,0 C38.8071187,0 50,11.4167389 50,25.5 C50,39.5832611 38.8071187,51 25,51 Z M25.2026367,19.7608696 C27.5958706,19.7608696 29.5359701,17.7996821 29.5359701,15.3804348 C29.5359701,12.9611875 27.5958706,11 25.2026367,11 C22.8094028,11 20.8693034,12.9611875 20.8693034,15.3804348 C20.8693034,17.7996821 22.8094028,19.7608696 25.2026367,19.7608696 Z" id="Combined-Shape"></path>
                <path d="M72.8465396,18.6899225 C71.9545188,17.3824224 70.6544653,16.7286822 68.9463403,16.7286822 C68.4149236,16.7286822 67.8930044,16.7997409 67.3805669,16.9418605 C66.8681294,17.08398 66.4078915,17.3018934 65.9998394,17.5956072 C65.5917873,17.889321 65.2644016,18.2683009 65.0176724,18.7325581 C64.7709433,19.1968154 64.6475805,19.7415989 64.6475805,20.3669251 C64.6475805,21.2764903 64.9037954,21.9823403 65.4162329,22.4844961 C65.9286704,22.986652 66.564463,23.3987925 67.3236297,23.7209302 C68.0827963,24.0430679 68.9131224,24.3320401 69.8146329,24.5878553 C70.7161433,24.8436705 71.5464694,25.1847524 72.305636,25.6111111 C73.0648027,26.0374698 73.7005953,26.6012024 74.2130328,27.3023256 C74.7254703,28.0034488 74.9816852,28.9603729 74.9816852,30.1731266 C74.9816852,31.0826919 74.7871516,31.9022358 74.3980787,32.6317829 C74.0090058,33.3613301 73.496576,33.9724351 72.8607739,34.4651163 C72.2249718,34.9577975 71.5132637,35.3367773 70.7256283,35.6020672 C69.9379929,35.8673571 69.1456246,36 68.3484996,36 C67.1148537,36 65.9429077,35.7678748 64.8326265,35.3036176 C63.7223452,34.8393603 62.7781458,34.0766634 62,33.0155039 L63.8504595,31.6795866 C64.2869803,32.4186083 64.8943046,33.0107644 65.6724504,33.4560724 C66.4505963,33.9013803 67.371072,34.124031 68.4339054,34.124031 C68.9463429,34.124031 69.4587727,34.0434978 69.9712102,33.8824289 C70.4836477,33.7213601 70.9438856,33.4844977 71.3519377,33.1718346 C71.7599898,32.8591716 72.0968649,32.4754545 72.3625733,32.0206718 C72.6282816,31.5658892 72.7611338,31.0447919 72.7611338,30.4573643 C72.7611338,29.7562411 72.6140474,29.1735596 72.3198703,28.7093023 C72.0256933,28.2450451 71.6366262,27.8565907 71.1526574,27.5439276 C70.6686887,27.2312646 70.1183011,26.9707159 69.5014782,26.7622739 C68.8846552,26.5538319 68.2488627,26.3453929 67.5940814,26.1369509 C66.9393002,25.9285089 66.3035076,25.6916465 65.6866847,25.4263566 C65.0698618,25.1610667 64.5194742,24.8247221 64.0355055,24.4173127 C63.5515367,24.0099032 63.1624696,23.4982804 62.8682925,22.8824289 C62.5741155,22.2665775 62.4270291,21.494406 62.4270291,20.5658915 C62.4270291,19.5994784 62.6120732,18.7562482 62.982167,18.0361757 C63.3522607,17.3161032 63.8457117,16.7192099 64.4625346,16.245478 C65.0793575,15.7717461 65.7768314,15.4211898 66.5549773,15.1937984 C67.3331231,14.9664071 68.1302361,14.8527132 68.9463403,14.8527132 C70.0850903,14.8527132 71.1194394,15.0327286 72.0494186,15.3927649 C72.9793977,15.7528011 73.8429369,16.3875924 74.6400619,17.2971576 L72.8465396,18.6899225 Z M87.6330021,25.3126615 C87.3103563,24.8199803 86.8596078,24.4031025 86.2807432,24.0620155 C85.7018786,23.7209285 85.0423625,23.5503876 84.302175,23.5503876 C83.5240291,23.5314383 82.8265552,23.6546068 82.2097323,23.9198966 C81.5929094,24.1851865 81.0662454,24.5546919 80.6297246,25.0284238 C80.1932037,25.5021557 79.8610733,26.0658882 79.6333233,26.7196382 C79.4055733,27.3733883 79.2917,28.0792382 79.2917,28.8372093 C79.2917,29.5951804 79.4055733,30.3010303 79.6333233,30.9547804 C79.8610733,31.6085304 80.1932037,32.1722629 80.6297246,32.6459948 C81.0662454,33.1197267 81.5929094,33.4892321 82.2097323,33.754522 C82.8265552,34.0198118 83.5240291,34.1429803 84.302175,34.124031 C85.0423625,34.124031 85.7018786,33.9534901 86.2807432,33.6124031 C86.8596078,33.2713161 87.3103563,32.8544383 87.6330021,32.3617571 L89.1703069,33.5271318 C88.5060361,34.3040521 87.7563702,34.8772591 86.9212869,35.24677 C86.0862036,35.6162809 85.213175,35.8105081 84.302175,35.8294574 C83.2203625,35.8484066 82.24295,35.682603 81.3699084,35.3320413 C80.4968667,34.9814797 79.7519456,34.4935432 79.1351226,33.8682171 C78.5182997,33.2428909 78.0485724,32.499143 77.7259266,31.6369509 C77.4032807,30.7747588 77.2419602,29.841521 77.2419602,28.8372093 C77.2419602,27.8328976 77.4032807,26.8996598 77.7259266,26.0374677 C78.0485724,25.1752756 78.5182997,24.4315277 79.1351226,23.8062016 C79.7519456,23.1808754 80.4968667,22.6929389 81.3699084,22.3423773 C82.24295,21.9918156 83.2203625,21.826012 84.302175,21.8449612 C85.213175,21.8639105 86.0862036,22.0581377 86.9212869,22.4276486 C87.7563702,22.7971595 88.5060361,23.3703665 89.1703069,24.1472868 L87.6330021,25.3126615 Z M91.3167075,26.3359173 C91.3167075,25.7484897 91.3024734,25.1515965 91.2740046,24.5452196 C91.2455359,23.9388428 91.2218123,23.1524596 91.2028331,22.1860465 L93.0532926,22.1860465 L93.0532926,24.6589147 L93.1102298,24.6589147 C93.243084,24.2988785 93.4328728,23.9530594 93.679602,23.621447 C93.9263311,23.2898347 94.2252485,22.9913881 94.5763631,22.7260982 C94.9274777,22.4608083 95.3355237,22.2476322 95.8005133,22.0865633 C96.2655029,21.9254945 96.7921668,21.8449612 97.380521,21.8449612 C97.9119377,21.8449612 98.3769203,21.9018082 98.7754828,22.0155039 L98.4053909,23.8630491 C98.1586617,23.7683027 97.798063,23.7209302 97.3235838,23.7209302 C96.6023754,23.7209302 95.9855618,23.8583104 95.4731243,24.1330749 C94.9606868,24.4078394 94.5336619,24.7583958 94.1920369,25.1847545 C93.8504119,25.6111132 93.5989417,26.0706263 93.4376188,26.5633075 C93.2762959,27.0559887 93.1956356,27.5297135 93.1956356,27.9844961 L93.1956356,35.4883721 L91.3167075,35.4883721 L91.3167075,26.3359173 Z M102.772343,17.0697674 C102.772343,17.4677022 102.630001,17.7945724 102.345314,18.0503876 C102.060626,18.3062028 101.747475,18.4341085 101.40585,18.4341085 C101.064225,18.4341085 100.751073,18.3062028 100.466386,18.0503876 C100.181698,17.7945724 100.039357,17.4677022 100.039357,17.0697674 C100.039357,16.6718326 100.181698,16.3449625 100.466386,16.0891473 C100.751073,15.8333321 101.064225,15.7054264 101.40585,15.7054264 C101.747475,15.7054264 102.060626,15.8333321 102.345314,16.0891473 C102.630001,16.3449625 102.772343,16.6718326 102.772343,17.0697674 Z M102.345314,35.4883721 L100.466386,35.4883721 L100.466386,22.1860465 L102.345314,22.1860465 L102.345314,35.4883721 Z M118.498269,28.8372093 C118.498269,28.0981875 118.379651,27.4065493 118.142412,26.7622739 C117.905172,26.1179985 117.568297,25.5590032 117.131776,25.0852713 C116.695255,24.6115394 116.168591,24.2372968 115.551769,23.9625323 C114.934946,23.6877678 114.237472,23.5503876 113.459326,23.5503876 C112.68118,23.5503876 111.969472,23.6877678 111.32418,23.9625323 C110.678889,24.2372968 110.119012,24.6115394 109.644532,25.0852713 C109.170053,25.5590032 108.799965,26.1179985 108.534257,26.7622739 C108.268548,27.4065493 108.135696,28.0981875 108.135696,28.8372093 C108.135696,29.5762311 108.268548,30.2678693 108.534257,30.9121447 C108.799965,31.5564201 109.170053,32.1154154 109.644532,32.5891473 C110.119012,33.0628792 110.678889,33.4371218 111.32418,33.7118863 C111.969472,33.9866508 112.68118,34.124031 113.459326,34.124031 C114.237472,34.124031 114.934946,33.9866508 115.551769,33.7118863 C116.168591,33.4371218 116.695255,33.0628792 117.131776,32.5891473 C117.568297,32.1154154 117.905172,31.5564201 118.142412,30.9121447 C118.379651,30.2678693 118.498269,29.5762311 118.498269,28.8372093 Z M106.342174,14 L108.221102,14 L108.221102,24.4031008 L108.278039,24.4031008 C108.581706,23.9483181 108.942305,23.5598638 109.359846,23.2377261 C109.777388,22.9155884 110.213902,22.6503025 110.669402,22.4418605 C111.124902,22.2334184 111.59463,22.0818265 112.078598,21.9870801 C112.562567,21.8923337 113.022805,21.8449612 113.459326,21.8449612 C114.50318,21.8449612 115.456869,22.0202394 116.320421,22.370801 C117.183973,22.7213626 117.928894,23.2092992 118.555207,23.8346253 C119.181519,24.4599514 119.670225,25.1989621 120.02134,26.0516796 C120.372455,26.904397 120.548009,27.8328976 120.548009,28.8372093 C120.548009,29.841521 120.372455,30.7700216 120.02134,31.622739 C119.670225,32.4754565 119.181519,33.2144672 118.555207,33.8397933 C117.928894,34.4651194 117.183973,34.953056 116.320421,35.3036176 C115.456869,35.6541792 114.50318,35.8294574 113.459326,35.8294574 C113.022805,35.8294574 112.562567,35.7820849 112.078598,35.6873385 C111.59463,35.5925921 111.124902,35.4410002 110.669402,35.2325581 C110.213902,35.0241161 109.777388,34.7588302 109.359846,34.4366925 C108.942305,34.1145548 108.581706,33.7261005 108.278039,33.2713178 L108.221102,33.2713178 L108.221102,35.4883721 L106.342174,35.4883721 L106.342174,14 Z M133.569418,27.8139535 C133.569418,26.544352 133.18984,25.5163691 132.430674,24.7299742 C131.671507,23.9435792 130.60869,23.5503876 129.24219,23.5503876 C128.634856,23.5503876 128.046511,23.6688188 127.477136,23.9056848 C126.907761,24.1425507 126.409565,24.4599463 125.982534,24.8578811 C125.555503,25.2558159 125.213883,25.7105918 124.957664,26.2222222 C124.701445,26.7338527 124.573338,27.2644245 124.573338,27.8139535 L133.569418,27.8139535 Z M124.516401,29.3488372 C124.573338,30.0120619 124.734659,30.6373786 125.000367,31.2248062 C125.266075,31.8122338 125.617185,32.3191193 126.053706,32.745478 C126.490226,33.1718368 126.993167,33.5081814 127.562542,33.754522 C128.131917,34.0008626 128.74873,34.124031 129.413001,34.124031 C130.418897,34.124031 131.287181,33.8919059 132.017879,33.4276486 C132.748577,32.9633913 133.303709,32.4280823 133.683292,31.8217054 L135.135191,33.0155039 C134.338066,34.0198155 133.460293,34.7398772 132.501845,35.1757106 C131.543397,35.611544 130.513793,35.8294574 129.413001,35.8294574 C128.426085,35.8294574 127.510354,35.6541792 126.665781,35.3036176 C125.821208,34.953056 125.095265,34.4651194 124.487932,33.8397933 C123.880599,33.2144672 123.401382,32.4754565 123.050267,31.622739 C122.699153,30.7700216 122.523598,29.841521 122.523598,28.8372093 C122.523598,27.8328976 122.694408,26.904397 123.036033,26.0516796 C123.377658,25.1989621 123.85213,24.4599514 124.459464,23.8346253 C125.066797,23.2092992 125.778505,22.7213626 126.594609,22.370801 C127.410713,22.0202394 128.293231,21.8449612 129.24219,21.8449612 C130.248085,21.8449612 131.149582,22.0249767 131.946707,22.3850129 C132.743832,22.7450492 133.412838,23.2235112 133.953744,23.8204134 C134.494651,24.4173156 134.907441,25.1184284 135.192129,25.9237726 C135.476816,26.7291169 135.619158,27.5865588 135.619158,28.496124 L135.619158,29.3488372 L124.516401,29.3488372 Z M140.299265,22.1860465 C140.337223,22.5460828 140.360946,22.9013764 140.370436,23.251938 C140.379926,23.6024996 140.38467,23.9577932 140.38467,24.3178295 L140.441608,24.3178295 C140.650378,23.9577932 140.916083,23.6261858 141.238729,23.3229974 C141.561374,23.019809 141.921973,22.7592603 142.320536,22.5413437 C142.719098,22.323427 143.141378,22.1528861 143.587389,22.0297158 C144.033399,21.9065455 144.474658,21.8449612 144.911179,21.8449612 C146.619304,21.8449612 147.8814,22.2949998 148.697504,23.1950904 C149.513608,24.0951811 149.921654,25.3789753 149.921654,27.0465116 L149.921654,35.4883721 L148.042726,35.4883721 L148.042726,28.126615 C148.042726,26.6485714 147.786511,25.5163691 147.274073,24.7299742 C146.761636,23.9435792 145.812692,23.5503876 144.427213,23.5503876 C144.332317,23.5503876 144.066612,23.5882856 143.630092,23.6640827 C143.193571,23.7398798 142.733333,23.9483187 142.249364,24.2894057 C141.765395,24.6304927 141.333626,25.1421155 140.954042,25.8242894 C140.574459,26.5064634 140.38467,27.453913 140.38467,28.6666667 L140.38467,35.4883721 L138.505742,35.4883721 L138.505742,25.1136951 C138.505742,24.7536588 138.491508,24.298883 138.463039,23.749354 C138.434571,23.199825 138.401358,22.6787277 138.363399,22.1860465 L140.299265,22.1860465 Z M160.864854,25.3410853 C160.580167,24.7915563 160.200589,24.3557294 159.72611,24.0335917 C159.251631,23.711454 158.672775,23.5503876 157.989525,23.5503876 C157.666879,23.5503876 157.339493,23.5882856 157.007358,23.6640827 C156.675223,23.7398798 156.376305,23.858311 156.110597,24.0193798 C155.844889,24.1804487 155.631376,24.3841504 155.470053,24.630491 C155.30873,24.8768316 155.22807,25.1800154 155.22807,25.5400517 C155.22807,26.1653778 155.446327,26.6201536 155.882848,26.9043928 C156.319369,27.1886319 156.97414,27.4349688 157.847182,27.6434109 L159.754579,28.0981912 C160.684558,28.3066333 161.457947,28.7282483 162.07477,29.3630491 C162.691593,29.9978499 163,30.7889703 163,31.7364341 C163,32.4565066 162.852914,33.0770861 162.558737,33.5981912 C162.264559,34.1192963 161.875492,34.5456486 161.391524,34.877261 C160.907555,35.2088733 160.352423,35.450473 159.72611,35.6020672 C159.099798,35.7536614 158.464005,35.8294574 157.818713,35.8294574 C156.793838,35.8294574 155.84015,35.6352302 154.957618,35.24677 C154.075087,34.8583099 153.320676,34.1903579 152.694364,33.2428941 L154.317075,32.1343669 C154.696658,32.7407438 155.175875,33.2239431 155.754739,33.5839793 C156.333604,33.9440156 157.021588,34.124031 157.818713,34.124031 C158.198297,34.124031 158.577874,34.0813958 158.957458,33.996124 C159.337041,33.9108523 159.673916,33.7782093 159.968093,33.5981912 C160.26227,33.4181731 160.499506,33.1860479 160.679808,32.9018088 C160.860111,32.6175696 160.95026,32.2859623 160.95026,31.9069767 C160.95026,31.2437521 160.703535,30.76529 160.210076,30.4715762 C159.716618,30.1778624 159.118783,29.9457373 158.416554,29.7751938 L156.594563,29.3488372 C156.366813,29.2919894 156.058406,29.1972444 155.669333,29.0645995 C155.280261,28.9319545 154.900683,28.7329901 154.530589,28.4677003 C154.160495,28.2024104 153.842599,27.8565913 153.576891,27.4302326 C153.311182,27.0038738 153.17833,26.4780393 153.17833,25.8527132 C153.17833,25.1705392 153.315927,24.573646 153.591125,24.0620155 C153.866323,23.550385 154.236411,23.1335072 154.701401,22.8113695 C155.16639,22.4892318 155.693054,22.2476322 156.281409,22.0865633 C156.869763,21.9254945 157.477087,21.8449612 158.103399,21.8449612 C159.033379,21.8449612 159.896918,22.0249767 160.694043,22.3850129 C161.491168,22.7450492 162.107981,23.3608914 162.544502,24.2325581 L160.864854,25.3410853 Z" id="Scribens"></path>
            </g>
        </g>
    </g>
</svg>